<svg xmlns="http://www.w3.org/2000/svg" xmlns:xlink="http://www.w3.org/1999/xlink" id="Layer_1" x="0" y="0" version="1.1" viewBox="0 0 249.5 97.3" style="enable-background:new 0 0 249.5 97.3" xml:space="preserve"><style type="text/css">.st0{fill:#007481}.st1{fill:#dadbdc}.st2{fill:#8c9091}.st3{fill:#c3c5c6}.st4{fill:#9ea2a3}.st5{fill:#e65300}.st6{fill:#80bac0}.st7{fill:#eba900}.st8{fill:#1da086}.st9{fill:#8b7866}.st10{fill:#929697}.st11{fill:#a1ccd0}.st12{fill:#c3b9af}.st13{fill:#fff}</style><g><path d="M236.2,97.3V0H0v97.3H236.2z M229.2,2.4c2.5,0,4.5,2,4.5,4.5c0,2.5-2,4.5-4.5,4.5s-4.5-2-4.5-4.5 C224.7,4.4,226.7,2.4,229.2,2.4 M229.2,85.8c2.5,0,4.5,2,4.5,4.5c0,2.5-2,4.5-4.5,4.5s-4.5-2-4.5-4.5 C224.7,87.8,226.7,85.8,229.2,85.8 M6.9,2.4c2.5,0,4.5,2,4.5,4.5c0,2.5-2,4.5-4.5,4.5c-2.5,0-4.5-2-4.5-4.5 C2.4,4.4,4.4,2.4,6.9,2.4 M6.9,85.8c2.5,0,4.5,2,4.5,4.5c0,2.5-2,4.5-4.5,4.5c-2.5,0-4.5-2-4.5-4.5C2.4,87.8,4.4,85.8,6.9,85.8" class="st0"/><polygon points="177.2 42.9 177.7 42.9 178.1 43 178.6 43.1 179.1 43.2 179.6 43.4 180 43.6 180.4 43.8 180.8 44.1 181.2 44.4 181.6 44.8 181.9 45.2 182.2 45.6 182.5 46 182.7 46.4 182.9 46.9 183 47.4 183.1 47.8 183.2 48.3 183.2 48.8 183.2 49.3 183.2 49.8 183.1 50.3 182.9 50.8 182.8 51.2 182.6 51.7 182.3 52.1 182.1 52.5 181.7 52.9 181.4 53.3 181 53.6 180.6 53.9 180.2 54.2 179.8 54.4 179.3 54.6 178.9 54.8 178.4 54.9 177.9 55 177.4 55 176.9 55 176.4 55 175.9 54.9 175.4 54.8 175 54.6 174.5 54.4 174.1 54.2 173.7 53.9 173.3 53.6 172.9 53.3 172.6 52.9 172.3 52.5 172 52.1 171.7 51.7 171.5 51.2 171.4 50.8 171.2 50.3 171.2 49.8 171.1 49.3 171.1 48.8 171.1 48.3 171.2 47.8 171.3 47.4 171.4 46.9 171.6 46.4 171.9 46 172.1 45.6 172.4 45.2 172.7 44.8 173.1 44.4 173.5 44.1 173.9 43.8 174.3 43.6 174.8 43.4 175.2 43.2 175.7 43.1 176.2 43 176.7 42.9" class="st1"/><rect width="8.6" height="3.3" x="173" y="36" class="st2"/><rect width="8.6" height="3.3" x="173" y="57.9" class="st2"/><path d="M184.3,58.6V38.2h-14.1v20.4H184.3z M172.3,47.2l0.2-0.4l0.2-0.4l0.2-0.4l0.5-0.7l0.3-0.3l0.3-0.3l0.3-0.2 l0.4-0.2l0.4-0.2l0.4-0.2l0.4-0.1l0.4-0.1l0.4-0.1l0.4,0l0.4,0l0.4,0.1l0.4,0.1l0.4,0.1l0.4,0.2l0.4,0.2l0.4,0.2l0.3,0.2l0.3,0.3 l0.3,0.3l0.3,0.3l0.3,0.3l0.2,0.4l0.2,0.4l0.2,0.4l0.1,0.4l0.1,0.4l0.1,0.4l0,0.4v0.4l-0.1,0.4l-0.1,0.4l-0.1,0.4l-0.2,0.4 l-0.2,0.4l-0.2,0.3l-0.3,0.4l-0.3,0.3l-0.3,0.3l-0.3,0.3l-0.3,0.3l-0.4,0.2l-0.4,0.2l-0.4,0.2l-0.4,0.1l-0.4,0.1l-0.4,0.1l-0.4,0 h-0.4l-0.4,0l-0.4-0.1l-0.4-0.1l-0.4-0.1l-0.4-0.2l-0.4-0.2l-0.3-0.2l-0.3-0.3l-0.3-0.3l-0.3-0.3L173,52l-0.2-0.4l-0.2-0.3 l-0.2-0.4l-0.1-0.4l-0.1-0.4l-0.1-0.4l0-0.4l0-0.4l0-0.4l0.1-0.4l0.1-0.4L172.3,47.2z" class="st3"/><path d="M210,57.9h8c0.2,0,0.4-0.2,0.4-0.4v-2.1c0-0.2-0.2-0.4-0.4-0.4h-8c-0.2,0-0.4,0.2-0.4,0.4v2.1 C209.7,57.7,209.8,57.9,210,57.9" class="st3"/><path d="M210,53.8h8c0.2,0,0.4-0.2,0.4-0.4v-2.1c0-0.2-0.2-0.4-0.4-0.4h-8c-0.2,0-0.4,0.2-0.4,0.4v2.1 C209.7,53.6,209.8,53.8,210,53.8" class="st3"/><path d="M210,49.6h8c0.2,0,0.4-0.2,0.4-0.4v-2.2c0-0.2-0.2-0.4-0.4-0.4h-8c-0.2,0-0.4,0.2-0.4,0.4v2.2 C209.7,49.5,209.8,49.6,210,49.6" class="st3"/><path d="M210,45.5h8c0.2,0,0.4-0.2,0.4-0.4V43c0-0.2-0.2-0.4-0.4-0.4h-8c-0.2,0-0.4,0.2-0.4,0.4v2.1 C209.7,45.4,209.8,45.5,210,45.5" class="st3"/><path d="M210,41.4h8c0.2,0,0.4-0.2,0.4-0.4v-2.1c0-0.2-0.2-0.4-0.4-0.4h-8c-0.2,0-0.4,0.2-0.4,0.4v2.1 C209.7,41.3,209.8,41.4,210,41.4" class="st3"/><rect width="35.3" height="46" x="214.3" y="25.6" class="st4"/><polygon points="217.8 25.6 214.3 25.6 214.3 25.7 214.3 71.5 214.3 71.6 217.8 71.6 217.8 71.5" class="st2"/><polygon points="224.8 25.6 221.3 25.6 221.3 25.7 221.3 71.5 221.3 71.6 224.8 71.6 224.8 71.5" class="st2"/><polygon points="231.9 25.6 228.4 25.6 228.4 25.7 228.4 71.5 228.4 71.6 231.9 71.6 231.9 71.5" class="st2"/><polygon points="238.9 25.6 235.4 25.6 235.4 25.7 235.4 71.5 235.4 71.6 238.9 71.6 238.9 71.5" class="st2"/><polygon points="246 25.6 242.5 25.6 242.5 25.7 242.5 71.5 242.5 71.6 246 71.6 246 71.5" class="st2"/><rect width="36.7" height="36.7" x="45.9" y="30.3" class="st0" transform="matrix(0.7071 -0.7071 0.7071 0.7071 -15.5834 59.6344)"/><rect width="36.7" height="36.7" x="45.9" y="30.3" class="st5" transform="matrix(0.7071 -0.7071 0.7071 0.7071 -15.5834 59.6344)"/><rect width="36.7" height="36.7" x="45.9" y="30.3" transform="matrix(0.7071 -0.7071 0.7071 0.7071 -15.5834 59.6344)"/><rect width="6.9" height="3.4" x="64.7" y="25" class="st2" transform="matrix(0.7071 -0.7071 0.7071 0.7071 1.119 55.978)"/><rect width="6.9" height="3.4" x="68.3" y="28.6" class="st2" transform="matrix(0.7071 -0.7071 0.7071 0.7071 -0.3764 59.5884)"/><rect width="6.9" height="3.4" x="71.9" y="32.2" class="st2" transform="matrix(0.7071 -0.7071 0.7071 0.7071 -1.872 63.199)"/><rect width="6.9" height="3.4" x="75.5" y="35.8" class="st2" transform="matrix(0.7071 -0.7071 0.7071 0.7071 -3.3675 66.8093)"/><rect width="6.9" height="3.4" x="79.1" y="39.4" class="st2" transform="matrix(0.7071 -0.7071 0.7071 0.7071 -4.863 70.4197)"/><rect width="6.9" height="3.4" x="82.7" y="43" class="st2" transform="matrix(0.7071 -0.7071 0.7071 0.7071 -6.3584 74.0305)"/><rect width="6.9" height="3.4" x="38.8" y="50.9" class="st2" transform="matrix(0.7071 -0.7071 0.7071 0.7071 -24.8084 45.2386)"/><rect width="6.9" height="3.4" x="42.4" y="54.5" class="st2" transform="matrix(0.7071 -0.7071 0.7071 0.7071 -26.3038 48.8489)"/><rect width="6.9" height="3.4" x="46" y="58.1" class="st2" transform="matrix(0.7071 -0.7071 0.7071 0.7071 -27.7994 52.4596)"/><rect width="6.9" height="3.4" x="49.6" y="61.7" class="st2" transform="matrix(0.7071 -0.7071 0.7071 0.7071 -29.2948 56.07)"/><rect width="6.9" height="3.4" x="53.2" y="65.3" class="st2" transform="matrix(0.7071 -0.7071 0.7071 0.7071 -30.7903 59.6804)"/><rect width="6.9" height="3.4" x="56.8" y="68.9" class="st2" transform="matrix(0.7071 -0.7071 0.7071 0.7071 -32.2858 63.291)"/><rect width="3.4" height="6.9" x="84.5" y="49.1" class="st2" transform="matrix(0.7071 -0.7071 0.7071 0.7071 -11.9268 76.337)"/><rect width="3.4" height="6.9" x="80.9" y="52.7" class="st2" transform="matrix(0.7071 -0.7071 0.7071 0.7071 -15.5371 74.8417)"/><rect width="3.4" height="6.9" x="77.3" y="56.3" class="st2" transform="matrix(0.7071 -0.7071 0.7071 0.7071 -19.1479 73.3463)"/><rect width="3.4" height="6.9" x="73.7" y="60" class="st2" transform="matrix(0.7071 -0.7071 0.7071 0.7071 -22.7582 71.8505)"/><rect width="3.4" height="6.9" x="70.1" y="63.6" class="st2" transform="matrix(0.7071 -0.7071 0.7071 0.7071 -26.3686 70.3551)"/><rect width="3.4" height="6.9" x="66.5" y="67.2" class="st2" transform="matrix(0.7071 -0.7071 0.7071 0.7071 -29.9793 68.8597)"/><rect width="3.4" height="6.9" x="58.6" y="23.2" class="st2" transform="matrix(0.7071 -0.7071 0.7071 0.7071 -1.1874 50.4097)"/><rect width="3.4" height="6.9" x="55" y="26.8" class="st2" transform="matrix(0.7071 -0.7071 0.7071 0.7071 -4.7977 48.9143)"/><rect width="3.4" height="6.9" x="51.4" y="30.4" class="st2" transform="matrix(0.7071 -0.7071 0.7071 0.7071 -8.4086 47.4188)"/><rect width="3.4" height="6.9" x="47.7" y="34" class="st2" transform="matrix(0.7071 -0.7071 0.7071 0.7071 -12.0188 45.9233)"/><rect width="3.4" height="6.9" x="44.1" y="37.6" class="st2" transform="matrix(0.7071 -0.7071 0.7071 0.7071 -15.6292 44.4278)"/><rect width="3.4" height="6.9" x="40.5" y="41.2" class="st2" transform="matrix(0.7071 -0.7071 0.7071 0.7071 -19.24 42.9324)"/><rect width="21.9" height="21.9" x="114.2" y="37.7" class="st0"/><rect width="21.9" height="21.9" x="114.2" y="37.7" class="st5"/><rect width="21.9" height="21.9" x="114.2" y="37.7"/><rect width="2" height="4.1" x="116.5" y="35.6" class="st2"/><rect width="2" height="4.1" x="119.6" y="35.6" class="st2"/><rect width="2" height="4.1" x="122.6" y="35.6" class="st2"/><rect width="2" height="4.1" x="125.7" y="35.6" class="st2"/><rect width="2" height="4.1" x="128.7" y="35.6" class="st2"/><rect width="2" height="4.1" x="131.8" y="35.6" class="st2"/><rect width="2" height="4.1" x="116.5" y="57.5" class="st2"/><rect width="2" height="4.1" x="119.6" y="57.5" class="st2"/><rect width="2" height="4.1" x="122.6" y="57.5" class="st2"/><rect width="2" height="4.1" x="125.7" y="57.5" class="st2"/><rect width="2" height="4.1" x="128.7" y="57.5" class="st2"/><rect width="2" height="4.1" x="131.8" y="57.5" class="st2"/><rect width="4.1" height="2" x="134" y="40" class="st2"/><rect width="4.1" height="2" x="134" y="43" class="st2"/><rect width="4.1" height="2" x="134" y="46.1" class="st2"/><rect width="4.1" height="2" x="134" y="49.1" class="st2"/><rect width="4.1" height="2" x="134" y="52.2" class="st2"/><rect width="4.1" height="2" x="134" y="55.3" class="st2"/><rect width="4.1" height="2" x="112.1" y="40" class="st2"/><rect width="4.1" height="2" x="112.1" y="43" class="st2"/><rect width="4.1" height="2" x="112.1" y="46.1" class="st2"/><rect width="4.1" height="2" x="112.1" y="49.1" class="st2"/><rect width="4.1" height="2" x="112.1" y="52.2" class="st2"/><rect width="4.1" height="2" x="112.1" y="55.3" class="st2"/><rect width="19.8" height="1.9" x="140.3" y="37.4" class="st6"/><rect width="1.9" height="3.6" x="154.7" y="41.6" class="st6"/><rect width="1.9" height="3.6" x="152" y="41.6" class="st6"/><rect width="1.9" height="3.6" x="149.3" y="41.6" class="st6"/><rect width="1.9" height="3.6" x="146.6" y="41.6" class="st6"/><rect width="1.9" height="3.6" x="143.9" y="41.6" class="st6"/><rect width="19.8" height="1.9" x="140.3" y="33.8" class="st6"/><rect width="19.8" height="1.9" x="140.3" y="30.2" class="st6"/><rect width="19.8" height="1.9" x="140.3" y="26.6" class="st6"/><rect width="19.8" height="1.9" x="140.3" y="23" class="st6"/><rect width="19.8" height="1.9" x="140.3" y="19.3" class="st6"/><polygon points="142.3 43.4 144.2 43.4 158.2 43.4 158.2 40.9 158.2 40.9 158.2 16.1 156.3 16.1 144.2 16.1 144.2 16.1 142.4 16.1"/><rect width="4.9" height="12.2" x="93.5" y="42.5" class="st2"/><path d="M95.9,44.8c2.1,0,3.8,1.7,3.8,3.8c0,2.1-1.7,3.8-3.8,3.8c-2.1,0-3.8-1.7-3.8-3.8 C92.2,46.5,93.9,44.8,95.9,44.8" class="st7"/><rect width="4.9" height="12.2" x="101.8" y="42.5" class="st2"/><path d="M104.2,44.8c2.1,0,3.8,1.7,3.8,3.8c0,2.1-1.7,3.8-3.8,3.8c-2.1,0-3.8-1.7-3.8-3.8 C100.5,46.5,102.2,44.8,104.2,44.8" class="st7"/><rect width="12.2" height="4.9" x="219.4" y="15" class="st2"/><path d="M221.7,17.5c0-2.1,1.7-3.8,3.8-3.8c2.1,0,3.8,1.7,3.8,3.8c0,2.1-1.7,3.8-3.8,3.8 C223.4,21.2,221.7,19.5,221.7,17.5" class="st7"/><rect width="12.2" height="4.9" x="219.4" y="77.2" class="st2"/><path d="M221.7,79.6c0-2.1,1.7-3.8,3.8-3.8c2.1,0,3.8,1.7,3.8,3.8c0,2.1-1.7,3.8-3.8,3.8 C223.4,83.4,221.7,81.7,221.7,79.6" class="st8"/><rect width="4.3" height="8.7" x="161.3" y="67.7" class="st2"/><rect width="4.3" height="8.7" x="150.2" y="67.7" class="st2"/><path d="M154.1,68.7c-0.9,0-1.7,0.8-1.7,1.7v3.4c0,0.9,0.8,1.7,1.7,1.7h0.5v-6.8H154.1z" class="st9"/><path d="M161.7,75.4c0.9,0,1.7-0.8,1.7-1.7v-3.4c0-0.9-0.8-1.7-1.7-1.7h-0.5v6.8H161.7z" class="st9"/><rect width="6.7" height="6.8" x="154.5" y="68.7" class="st0"/><rect width="6.7" height="6.8" x="154.5" y="68.7" class="st5"/><rect width="6.7" height="6.8" x="154.5" y="68.7"/><rect width="4.3" height="8.7" x="200.8" y="31.4" class="st2"/><rect width="4.3" height="8.7" x="189.8" y="31.4" class="st2"/><path d="M193.6,32.4c-0.9,0-1.7,0.8-1.7,1.7v3.4c0,0.9,0.8,1.7,1.7,1.7h0.5v-6.8H193.6z" class="st9"/><path d="M201.3,39.2c0.9,0,1.7-0.8,1.7-1.7v-3.4c0-0.9-0.8-1.7-1.7-1.7h-0.5v6.8H201.3z" class="st9"/><rect width="6.7" height="6.8" x="194.1" y="32.4" class="st0"/><rect width="6.7" height="6.8" x="194.1" y="32.4" class="st5"/><rect width="6.7" height="6.8" x="194.1" y="32.4"/><rect width="8.7" height="4.3" x="2.1" y="42.9" class="st2"/><rect width="8.7" height="4.3" x="2.1" y="54" class="st2"/><path d="M3.1,54.4c0,0.9,0.8,1.7,1.7,1.7h3.4c0.9,0,1.7-0.8,1.7-1.7V54H3.1V54.4z" class="st9"/><path d="M9.8,46.8c0-0.9-0.8-1.7-1.7-1.7H4.8c-0.9,0-1.7,0.8-1.7,1.7v0.5h6.8V46.8z" class="st9"/><rect width="6.8" height="6.7" x="3.1" y="47.2" class="st0"/><rect width="6.8" height="6.7" x="3.1" y="47.2" class="st5"/><rect width="6.8" height="6.7" x="3.1" y="47.2"/><path d="M197.3,16.1c-0.5,0-0.8,0.4-0.8,0.8h1.6C198.1,16.4,197.7,16.1,197.3,16.1" class="st2"/><path d="M197.3,24c0.5,0,0.8-0.4,0.8-0.8h-1.6C196.5,23.6,196.8,24,197.3,24" class="st2"/><path d="M195.7,16.1c-0.5,0-0.8,0.4-0.8,0.8h1.6C196.5,16.4,196.1,16.1,195.7,16.1" class="st2"/><path d="M195.7,24c0.5,0,0.8-0.4,0.8-0.8h-1.6C194.8,23.6,195.2,24,195.7,24" class="st2"/><polygon points="196.5 23.2 196.5 23.2 198.1 23.2 198.1 22.5 198.1 22.4 198.1 21.8 198.1 21.7 198.1 21.1 198.1 21 198.1 20.4 198.1 20.3 198.1 19.7 198.1 19.6 198.1 19 198.1 19 198.1 18.3 198.1 18.3 198.1 17.6 198.1 17.6 198.1 16.9 196.5 16.9 196.5 16.9 194.8 16.9 194.8 17.6 194.8 17.6 194.8 18.3 194.8 18.3 194.8 19 194.8 19 194.8 19.6 194.8 19.7 194.8 20.3 194.8 20.4 194.8 21 194.8 21.1 194.8 21.7 194.8 21.8 194.8 22.4 194.8 22.5 194.8 23.2" class="st0"/><polygon points="196.5 23.2 196.5 23.2 198.1 23.2 198.1 22.5 198.1 22.4 198.1 21.8 198.1 21.7 198.1 21.1 198.1 21 198.1 20.4 198.1 20.3 198.1 19.7 198.1 19.6 198.1 19 198.1 19 198.1 18.3 198.1 18.3 198.1 17.6 198.1 17.6 198.1 16.9 196.5 16.9 196.5 16.9 194.8 16.9 194.8 17.6 194.8 17.6 194.8 18.3 194.8 18.3 194.8 19 194.8 19 194.8 19.6 194.8 19.7 194.8 20.3 194.8 20.4 194.8 21 194.8 21.1 194.8 21.7 194.8 21.8 194.8 22.4 194.8 22.5 194.8 23.2" class="st5"/><polygon points="196.5 23.2 196.5 23.2 198.1 23.2 198.1 22.5 198.1 22.4 198.1 21.8 198.1 21.7 198.1 21.1 198.1 21 198.1 20.4 198.1 20.3 198.1 19.7 198.1 19.6 198.1 19 198.1 19 198.1 18.3 198.1 18.3 198.1 17.6 198.1 17.6 198.1 16.9 196.5 16.9 196.5 16.9 194.8 16.9 194.8 17.6 194.8 17.6 194.8 18.3 194.8 18.3 194.8 19 194.8 19 194.8 19.6 194.8 19.7 194.8 20.3 194.8 20.4 194.8 21 194.8 21.1 194.8 21.7 194.8 21.8 194.8 22.4 194.8 22.5 194.8 23.2"/><path d="M201.8,16.1c-0.5,0-0.8,0.4-0.8,0.8h1.6C202.6,16.4,202.2,16.1,201.8,16.1" class="st2"/><path d="M201.8,24c0.5,0,0.8-0.4,0.8-0.8H201C201,23.6,201.3,24,201.8,24" class="st2"/><path d="M200.1,16.1c-0.5,0-0.8,0.4-0.8,0.8h1.6C201,16.4,200.6,16.1,200.1,16.1" class="st2"/><path d="M200.1,24c0.5,0,0.8-0.4,0.8-0.8h-1.6C199.3,23.6,199.7,24,200.1,24" class="st2"/><polygon points="201 23.2 201 23.2 202.6 23.2 202.6 22.5 202.6 22.4 202.6 21.8 202.6 21.7 202.6 21.1 202.6 21 202.6 20.4 202.6 20.3 202.6 19.7 202.6 19.6 202.6 19 202.6 19 202.6 18.3 202.6 18.3 202.6 17.6 202.6 17.6 202.6 16.9 201 16.9 201 16.9 199.3 16.9 199.3 17.6 199.3 17.6 199.3 18.3 199.3 18.3 199.3 19 199.3 19 199.3 19.6 199.3 19.7 199.3 20.3 199.3 20.4 199.3 21 199.3 21.1 199.3 21.7 199.3 21.8 199.3 22.4 199.3 22.5 199.3 23.2" class="st0"/><polygon points="201 23.2 201 23.2 202.6 23.2 202.6 22.5 202.6 22.4 202.6 21.8 202.6 21.7 202.6 21.1 202.6 21 202.6 20.4 202.6 20.3 202.6 19.7 202.6 19.6 202.6 19 202.6 19 202.6 18.3 202.6 18.3 202.6 17.6 202.6 17.6 202.6 16.9 201 16.9 201 16.9 199.3 16.9 199.3 17.6 199.3 17.6 199.3 18.3 199.3 18.3 199.3 19 199.3 19 199.3 19.6 199.3 19.7 199.3 20.3 199.3 20.4 199.3 21 199.3 21.1 199.3 21.7 199.3 21.8 199.3 22.4 199.3 22.5 199.3 23.2" class="st5"/><polygon points="201 23.2 201 23.2 202.6 23.2 202.6 22.5 202.6 22.4 202.6 21.8 202.6 21.7 202.6 21.1 202.6 21 202.6 20.4 202.6 20.3 202.6 19.7 202.6 19.6 202.6 19 202.6 19 202.6 18.3 202.6 18.3 202.6 17.6 202.6 17.6 202.6 16.9 201 16.9 201 16.9 199.3 16.9 199.3 17.6 199.3 17.6 199.3 18.3 199.3 18.3 199.3 19 199.3 19 199.3 19.6 199.3 19.7 199.3 20.3 199.3 20.4 199.3 21 199.3 21.1 199.3 21.7 199.3 21.8 199.3 22.4 199.3 22.5 199.3 23.2"/><rect width="2.6" height="3.3" x="91.5" y="26"/><rect width="1.4" height="3.3" x="93.9" y="26" class="st10"/><rect width="1.4" height="3.3" x="90.1" y="26" class="st10"/><rect width="3.3" height="2.6" x="100.9" y="29"/><rect width="3.3" height="1.4" x="100.9" y="31.4" class="st10"/><rect width="3.3" height="1.4" x="100.9" y="27.6" class="st10"/><rect width="3.3" height="2.6" x="114.2" y="29"/><rect width="3.3" height="1.4" x="114.2" y="31.4" class="st10"/><rect width="3.3" height="1.4" x="114.2" y="27.6" class="st10"/><rect width="3.3" height="2.6" x="106.5" y="29"/><rect width="3.3" height="1.4" x="106.5" y="31.4" class="st10"/><rect width="3.3" height="1.4" x="106.5" y="27.6" class="st10"/><rect width="2.6" height="3.3" x="91.5" y="31.5"/><rect width="1.4" height="3.3" x="93.9" y="31.5" class="st10"/><rect width="1.4" height="3.3" x="90.1" y="31.5" class="st10"/><rect width="2.6" height="3.3" x="27.2" y="49.7"/><rect width="1.4" height="3.3" x="29.6" y="49.7" class="st10"/><rect width="1.4" height="3.3" x="25.9" y="49.7" class="st10"/><rect width="3.3" height="2.6" x="5.3" y="22.3"/><rect width="3.3" height="1.4" x="5.3" y="21" class="st10"/><rect width="3.3" height="1.4" x="5.3" y="24.8" class="st10"/><path d="M19.1,65.9c0.5,0.5,0.5,1.2,0,1.7c-0.5,0.5-1.2,0.5-1.7,0c-0.5-0.5-0.5-1.2,0-1.7 C17.9,65.5,18.7,65.5,19.1,65.9" class="st11"/><path d="M21.8,68.6c0.5,0.5,0.5,1.2,0,1.7c-0.5,0.5-1.2,0.5-1.7,0c-0.5-0.5-0.5-1.2,0-1.7 C20.6,68.1,21.3,68.1,21.8,68.6" class="st11"/><path d="M24.5,71.3c0.5,0.5,0.5,1.2,0,1.7c-0.5,0.5-1.2,0.5-1.7,0c-0.5-0.5-0.5-1.2,0-1.7 C23.3,70.8,24,70.8,24.5,71.3" class="st11"/><path d="M27.1,73.9c0.5,0.5,0.5,1.2,0,1.7c-0.5,0.5-1.2,0.5-1.7,0c-0.5-0.5-0.5-1.2,0-1.7 C25.9,73.5,26.7,73.5,27.1,73.9" class="st11"/><path d="M25.8,59.3c0.5,0.5,0.5,1.2,0,1.7c-0.5,0.5-1.2,0.5-1.7,0c-0.5-0.5-0.5-1.2,0-1.7 C24.6,58.8,25.3,58.8,25.8,59.3" class="st11"/><path d="M28.5,61.9c0.5,0.5,0.5,1.2,0,1.7c-0.5,0.5-1.2,0.5-1.7,0c-0.5-0.5-0.5-1.2,0-1.7 C27.3,61.5,28,61.5,28.5,61.9" class="st11"/><path d="M31.1,64.6c0.5,0.5,0.5,1.2,0,1.7c-0.5,0.5-1.2,0.5-1.7,0c-0.5-0.5-0.5-1.2,0-1.7 C29.9,64.1,30.7,64.1,31.1,64.6" class="st11"/><path d="M33.8,67.3c0.5,0.5,0.5,1.2,0,1.7c-0.5,0.5-1.2,0.5-1.7,0c-0.5-0.5-0.5-1.2,0-1.7 C32.6,66.8,33.3,66.8,33.8,67.3" class="st11"/><polygon points="30.5 72.3 32.1 70.6 22.5 60.9 20.8 62.6 19.1 64.3 28.8 73.9" class="st0"/><polygon points="30.5 72.3 32.1 70.6 22.5 60.9 20.8 62.6 19.1 64.3 28.8 73.9" class="st5"/><polygon points="30.5 72.3 32.1 70.6 22.5 60.9 20.8 62.6 19.1 64.3 28.8 73.9"/><rect width="2.4" height="2.4" x="31" y="67.8" class="st2" transform="matrix(0.7071 -0.7071 0.7071 0.7071 -39.3343 42.9135)"/><rect width="2.4" height="2.4" x="28.3" y="65.1" class="st2" transform="matrix(0.7071 -0.7071 0.7071 0.7071 -38.2301 40.2481)"/><rect width="2.4" height="2.4" x="25.6" y="62.4" class="st2" transform="matrix(0.7071 -0.7071 0.7071 0.7071 -37.1247 37.5789)"/><rect width="2.4" height="2.4" x="23" y="59.8" class="st2" transform="matrix(0.7071 -0.7071 0.7071 0.7071 -36.0209 34.9149)"/><rect width="2.4" height="2.4" x="26" y="72.8" class="st2" transform="matrix(0.7071 -0.7071 0.7071 0.7071 -44.3362 40.841)"/><rect width="2.4" height="2.4" x="23.3" y="70.1" class="st2" transform="matrix(0.7071 -0.7071 0.7071 0.7071 -43.232 38.1756)"/><rect width="2.4" height="2.4" x="20.6" y="67.4" class="st2" transform="matrix(0.7071 -0.7071 0.7071 0.7071 -42.1263 35.5062)"/><rect width="2.4" height="2.4" x="18" y="64.8" class="st2" transform="matrix(0.7071 -0.7071 0.7071 0.7071 -41.0229 32.8423)"/><path d="M24.1,40.9c0.5-0.5,1.2-0.5,1.7,0c0.5,0.5,0.5,1.2,0,1.7c-0.5,0.5-1.2,0.5-1.7,0 C23.7,42.1,23.7,41.4,24.1,40.9" class="st11"/><path d="M26.8,38.2c0.5-0.5,1.2-0.5,1.7,0c0.5,0.5,0.5,1.2,0,1.7c-0.5,0.5-1.2,0.5-1.7,0 C26.3,39.4,26.3,38.7,26.8,38.2" class="st11"/><path d="M29.5,35.6c0.5-0.5,1.2-0.5,1.7,0c0.5,0.5,0.5,1.2,0,1.7c-0.5,0.5-1.2,0.5-1.7,0C29,36.8,29,36,29.5,35.6" class="st11"/><path d="M32.1,32.9c0.5-0.5,1.2-0.5,1.7,0c0.5,0.5,0.5,1.2,0,1.7c-0.5,0.5-1.2,0.5-1.7,0 C31.7,34.1,31.7,33.4,32.1,32.9" class="st11"/><path d="M17.5,34.2c0.5-0.5,1.2-0.5,1.7,0c0.5,0.5,0.5,1.2,0,1.7c-0.5,0.5-1.2,0.5-1.7,0C17,35.4,17,34.7,17.5,34.2" class="st11"/><path d="M20.1,31.6c0.5-0.5,1.2-0.5,1.7,0c0.5,0.5,0.5,1.2,0,1.7c-0.5,0.5-1.2,0.5-1.7,0C19.7,32.8,19.7,32,20.1,31.6" class="st11"/><path d="M22.8,28.9c0.5-0.5,1.2-0.5,1.7,0c0.5,0.5,0.5,1.2,0,1.7c-0.5,0.5-1.2,0.5-1.7,0 C22.3,30.1,22.3,29.4,22.8,28.9" class="st11"/><path d="M25.5,26.2c0.5-0.5,1.2-0.5,1.7,0c0.5,0.5,0.5,1.2,0,1.7c-0.5,0.5-1.2,0.5-1.7,0C25,27.4,25,26.7,25.5,26.2" class="st11"/><polygon points="30.5 29.6 28.8 27.9 19.1 37.6 20.8 39.2 22.5 40.9 32.1 31.2" class="st0"/><polygon points="30.5 29.6 28.8 27.9 19.1 37.6 20.8 39.2 22.5 40.9 32.1 31.2" class="st5"/><polygon points="30.5 29.6 28.8 27.9 19.1 37.6 20.8 39.2 22.5 40.9 32.1 31.2"/><rect width="2.4" height="2.4" x="25.9" y="26.7" class="st2" transform="matrix(0.7071 -0.7071 0.7071 0.7071 -11.7776 27.3529)"/><rect width="2.4" height="2.4" x="23.3" y="29.4" class="st2" transform="matrix(0.7071 -0.7071 0.7071 0.7071 -14.443 26.2488)"/><rect width="2.4" height="2.4" x="20.6" y="32.1" class="st2" transform="matrix(0.7071 -0.7071 0.7071 0.7071 -17.1123 25.143)"/><rect width="2.4" height="2.4" x="18" y="34.7" class="st2" transform="matrix(0.7071 -0.7071 0.7071 0.7071 -19.7763 24.0396)"/><rect width="2.4" height="2.4" x="31" y="31.7" class="st2" transform="matrix(0.7071 -0.7071 0.7071 0.7071 -13.8494 32.3556)"/><rect width="2.4" height="2.4" x="28.3" y="34.4" class="st2" transform="matrix(0.7071 -0.7071 0.7071 0.7071 -16.515 31.2515)"/><rect width="2.4" height="2.4" x="25.6" y="37.1" class="st2" transform="matrix(0.7071 -0.7071 0.7071 0.7071 -19.1844 30.1457)"/><rect width="2.4" height="2.4" x="23" y="39.7" class="st2" transform="matrix(0.7071 -0.7071 0.7071 0.7071 -21.8486 29.0423)"/><rect width="8.4" height="12.8" x="122.5" y="21.9"/><rect width="8.4" height="12.8" x="122.5" y="21.9"/><rect width="8.4" height="12.8" x="122.5" y="21.9" class="st5"/><rect width="8.4" height="12.8" x="122.5" y="21.9" class="st9"/><rect width="6.1" height="2.2" x="129.6" y="31.5" class="st2"/><rect width="6.1" height="2.2" x="129.6" y="23" class="st2"/><rect width="6.1" height="2.2" x="129.6" y="27.3" class="st2"/><rect width="6.1" height="2.2" x="118.6" y="31.5" class="st2"/><rect width="6.1" height="2.2" x="118.6" y="23" class="st2"/><rect width="12.8" height="8.4" x="189.8" y="47"/><rect width="12.8" height="8.4" x="189.8" y="47"/><rect width="12.8" height="8.4" x="189.8" y="47" class="st5"/><rect width="12.8" height="8.4" x="189.8" y="47" class="st9"/><rect width="2.2" height="6.1" x="199.3" y="42.2" class="st2"/><rect width="2.2" height="6.1" x="190.9" y="42.2" class="st2"/><rect width="2.2" height="6.1" x="199.3" y="53.1" class="st2"/><rect width="2.2" height="6.1" x="190.9" y="53.1" class="st2"/><path d="M152.2,57.3L152.2,57.3l-1.9,0h-0.2h-1.9v0c-1,0-1.9,0.9-1.9,1.9s0.8,1.9,1.9,1.9v0h1.9h0.2h1.9 c1.1,0,2-0.9,2-2C154.1,58.2,153.2,57.3,152.2,57.3" class="st2"/><rect width="2.9" height="3.9" x="148.7" y="57.3" class="st9"/><rect width="2.9" height="3.9" x="148.7" y="57.3" class="st9"/><rect width="2.9" height="3.9" x="148.7" y="57.3" class="st9"/><rect width="2.9" height="3.9" x="148.7" y="57.3"/><path d="M208.4,79.4L208.4,79.4l-1.9,0h-0.2h-1.9v0c-1,0-1.9,0.9-1.9,1.9s0.8,1.9,1.9,1.9v0h1.9h0.2h1.9 c1.1,0,2-0.9,2-2C210.4,80.3,209.5,79.4,208.4,79.4" class="st2"/><rect width="2.9" height="3.9" x="205" y="79.4" class="st9"/><rect width="2.9" height="3.9" x="205" y="79.4" class="st9"/><rect width="2.9" height="3.9" x="205" y="79.4" class="st9"/><rect width="2.9" height="3.9" x="205" y="79.4"/><path d="M200.1,26.5L200.1,26.5l-1.9,0H198h-1.9v0c-1,0-1.9,0.9-1.9,1.9s0.8,1.9,1.9,1.9v0h1.9h0.2h1.9 c1.1,0,2-0.9,2-2C202,27.3,201.1,26.5,200.1,26.5" class="st2"/><rect width="2.9" height="3.9" x="196.6" y="26.5" class="st9"/><rect width="2.9" height="3.9" x="196.6" y="26.5" class="st9"/><rect width="2.9" height="3.9" x="196.6" y="26.5" class="st9"/><rect width="2.9" height="3.9" x="196.6" y="26.5"/><path d="M211.6,15.5L211.6,15.5l-1.9,0h-0.2h-1.9v0c-1,0-1.9,0.9-1.9,1.9s0.8,1.9,1.9,1.9v0h1.9h0.2h1.9 c1.1,0,2-0.9,2-2C213.5,16.4,212.7,15.5,211.6,15.5" class="st2"/><rect width="2.9" height="3.9" x="208.2" y="15.5" class="st9"/><rect width="2.9" height="3.9" x="208.2" y="15.5" class="st9"/><rect width="2.9" height="3.9" x="208.2" y="15.5" class="st9"/><rect width="2.9" height="3.9" x="208.2" y="15.5"/><path d="M147.7,79.4L147.7,79.4l-1.9,0h-0.2h-1.9v0c-1,0-1.9,0.9-1.9,1.9s0.8,1.9,1.9,1.9v0h1.9h0.2h1.9 c1.1,0,2-0.9,2-2C149.7,80.3,148.8,79.4,147.7,79.4" class="st2"/><rect width="2.9" height="3.9" x="144.3" y="79.4" class="st9"/><rect width="2.9" height="3.9" x="144.3" y="79.4" class="st9"/><rect width="2.9" height="3.9" x="144.3" y="79.4" class="st9"/><rect width="2.9" height="3.9" x="144.3" y="79.4"/><path d="M176,67.7L176,67.7l-1.9,0h-0.2H172v0c-1,0-1.9,0.9-1.9,1.9s0.8,1.9,1.9,1.9v0h1.9h0.2h1.9c1.1,0,2-0.9,2-2 C177.9,68.6,177.1,67.7,176,67.7" class="st2"/><rect width="2.9" height="3.9" x="172.6" y="67.7" class="st9"/><rect width="2.9" height="3.9" x="172.6" y="67.7" class="st9"/><rect width="2.9" height="3.9" x="172.6" y="67.7" class="st9"/><rect width="2.9" height="3.9" x="172.6" y="67.7"/><path d="M132.8,70.8L132.8,70.8l0,1.9v0.2v1.9h0c0,1,0.9,1.9,1.9,1.9s1.9-0.8,1.9-1.9h0v-1.9v-0.2v-1.9 c0-1.1-0.9-2-2-2S132.8,69.7,132.8,70.8" class="st2"/><rect width="3.9" height="2.9" x="132.8" y="71.3" class="st9"/><rect width="3.9" height="2.9" x="132.8" y="71.3" class="st9"/><rect width="3.9" height="2.9" x="132.8" y="71.3" class="st9"/><rect width="3.9" height="2.9" x="132.8" y="71.3"/><path d="M126.7,70.8L126.7,70.8l0,1.9v0.2v1.9h0c0,1,0.9,1.9,1.9,1.9s1.9-0.8,1.9-1.9h0v-1.9v-0.2v-1.9 c0-1.1-0.9-2-2-2S126.7,69.7,126.7,70.8" class="st2"/><rect width="3.9" height="2.9" x="126.7" y="71.3" class="st9"/><rect width="3.9" height="2.9" x="126.7" y="71.3" class="st9"/><rect width="3.9" height="2.9" x="126.7" y="71.3" class="st9"/><rect width="3.9" height="2.9" x="126.7" y="71.3"/><path d="M34.2,31.2L34.2,31.2l1.3,1.3l0.1,0.1L37,34l0,0c0.8,0.7,2,0.7,2.7,0c0.7-0.7,0.8-1.9,0-2.7l0,0l-1.3-1.3 l-0.1-0.1l-1.3-1.3c-0.8-0.8-2-0.8-2.8,0C33.4,29.2,33.4,30.5,34.2,31.2" class="st2"/><rect width="3.9" height="2.9" x="35" y="29.8" class="st9" transform="matrix(0.7071 -0.7071 0.7071 0.7071 -11.276 35.2753)"/><rect width="3.9" height="2.9" x="35" y="29.8" class="st9" transform="matrix(0.7071 -0.7071 0.7071 0.7071 -11.276 35.2753)"/><rect width="3.9" height="2.9" x="35" y="29.8" class="st9" transform="matrix(0.7071 -0.7071 0.7071 0.7071 -11.276 35.2753)"/><rect width="3.9" height="2.9" x="35" y="29.8" transform="matrix(0.7071 -0.7071 0.7071 0.7071 -11.276 35.2753)"/><path d="M25.9,23L25.9,23l1.3,1.3l0.1,0.1l1.3,1.3l0,0c0.8,0.7,2,0.7,2.7,0c0.7-0.7,0.8-1.9,0-2.7l0,0l-1.3-1.3 l-0.1-0.1l-1.3-1.3c-0.8-0.8-2-0.8-2.8,0C25.2,21,25.2,22.2,25.9,23" class="st2"/><rect width="3.9" height="2.9" x="26.8" y="21.6" class="st9" transform="matrix(0.7071 -0.7071 0.7071 0.7071 -7.8694 27.0507)"/><rect width="3.9" height="2.9" x="26.8" y="21.6" class="st9" transform="matrix(0.7071 -0.7071 0.7071 0.7071 -7.8694 27.0507)"/><rect width="3.9" height="2.9" x="26.8" y="21.6" class="st9" transform="matrix(0.7071 -0.7071 0.7071 0.7071 -7.8694 27.0507)"/><rect width="3.9" height="2.9" x="26.8" y="21.6" transform="matrix(0.7071 -0.7071 0.7071 0.7071 -7.8694 27.0507)"/><path d="M28,78.1L28,78.1l-1.3,1.3l-0.1,0.1l-1.3,1.3l0,0c-0.7,0.8-0.7,2,0,2.7c0.7,0.7,1.9,0.8,2.7,0l0,0l1.3-1.3 l0.1-0.1l1.3-1.3c0.8-0.8,0.8-2,0-2.8C30,77.3,28.8,77.3,28,78.1" class="st2"/><rect width="2.9" height="3.9" x="26.6" y="78.9" class="st9" transform="matrix(0.7071 -0.7071 0.7071 0.7071 -48.9803 43.5036)"/><rect width="2.9" height="3.9" x="26.6" y="78.9" class="st9" transform="matrix(0.7071 -0.7071 0.7071 0.7071 -48.9803 43.5036)"/><rect width="2.9" height="3.9" x="26.6" y="78.9" class="st9" transform="matrix(0.7071 -0.7071 0.7071 0.7071 -48.9803 43.5036)"/><rect width="2.9" height="3.9" x="26.6" y="78.9" transform="matrix(0.7071 -0.7071 0.7071 0.7071 -48.9803 43.5036)"/><path d="M36.3,69.9L36.3,69.9l-1.3,1.3l-0.1,0.1l-1.3,1.3l0,0c-0.7,0.8-0.7,2,0,2.7c0.7,0.7,1.9,0.8,2.7,0l0,0l1.3-1.3 l0.1-0.1l1.3-1.3c0.8-0.8,0.8-2,0-2.8C38.3,69.1,37,69.1,36.3,69.9" class="st2"/><rect width="2.9" height="3.9" x="34.8" y="70.7" class="st9" transform="matrix(0.7071 -0.7071 0.7071 0.7071 -40.7559 46.9102)"/><rect width="2.9" height="3.9" x="34.8" y="70.7" class="st9" transform="matrix(0.7071 -0.7071 0.7071 0.7071 -40.7559 46.9102)"/><rect width="2.9" height="3.9" x="34.8" y="70.7" class="st9" transform="matrix(0.7071 -0.7071 0.7071 0.7071 -40.7559 46.9102)"/><rect width="2.9" height="3.9" x="34.8" y="70.7" transform="matrix(0.7071 -0.7071 0.7071 0.7071 -40.7559 46.9102)"/><path d="M20.6,54.2L20.6,54.2l-1.3,1.3l-0.1,0.1L17.8,57l0,0c-0.7,0.8-0.7,2,0,2.7c0.7,0.7,1.9,0.8,2.7,0l0,0l1.3-1.3 l0.1-0.1l1.3-1.3c0.8-0.8,0.8-2,0-2.8C22.6,53.5,21.4,53.5,20.6,54.2" class="st2"/><rect width="2.9" height="3.9" x="19.1" y="55" class="st9" transform="matrix(0.7071 -0.7071 0.7071 0.7071 -34.2694 31.2509)"/><rect width="2.9" height="3.9" x="19.1" y="55" class="st9" transform="matrix(0.7071 -0.7071 0.7071 0.7071 -34.2694 31.2509)"/><rect width="2.9" height="3.9" x="19.1" y="55" class="st9" transform="matrix(0.7071 -0.7071 0.7071 0.7071 -34.2694 31.2509)"/><rect width="2.9" height="3.9" x="19.1" y="55" transform="matrix(0.7071 -0.7071 0.7071 0.7071 -34.2694 31.2509)"/><path d="M19.6,45.8L19.6,45.8l1.3,1.3l0.1,0.1l1.3,1.3l0,0c0.8,0.7,2,0.7,2.7,0c0.7-0.7,0.8-1.9,0-2.7l0,0l-1.3-1.3 l-0.1-0.1L22.4,43c-0.8-0.8-2-0.8-2.8,0C18.8,43.8,18.8,45,19.6,45.8" class="st2"/><rect width="3.9" height="2.9" x="20.4" y="44.4" class="st9" transform="matrix(0.7071 -0.7071 0.7071 0.7071 -25.839 29.243)"/><rect width="3.9" height="2.9" x="20.4" y="44.4" class="st9" transform="matrix(0.7071 -0.7071 0.7071 0.7071 -25.839 29.243)"/><rect width="3.9" height="2.9" x="20.4" y="44.4" class="st9" transform="matrix(0.7071 -0.7071 0.7071 0.7071 -25.839 29.243)"/><rect width="3.9" height="2.9" x="20.4" y="44.4" transform="matrix(0.7071 -0.7071 0.7071 0.7071 -25.839 29.243)"/><path d="M11.4,37.6L11.4,37.6l1.3,1.3l0.1,0.1l1.3,1.3l0,0c0.8,0.7,2,0.7,2.7,0c0.7-0.7,0.8-1.9,0-2.7l0,0l-1.3-1.3 l-0.1-0.1l-1.3-1.3c-0.8-0.8-2-0.8-2.8,0C10.6,35.6,10.6,36.8,11.4,37.6" class="st2"/><rect width="3.9" height="2.9" x="12.2" y="36.1" class="st9" transform="matrix(0.7071 -0.7071 0.7071 0.7071 -22.4323 21.0185)"/><rect width="3.9" height="2.9" x="12.2" y="36.1" class="st9" transform="matrix(0.7071 -0.7071 0.7071 0.7071 -22.4323 21.0185)"/><rect width="3.9" height="2.9" x="12.2" y="36.1" class="st9" transform="matrix(0.7071 -0.7071 0.7071 0.7071 -22.4323 21.0185)"/><rect width="3.9" height="2.9" x="12.2" y="36.1" transform="matrix(0.7071 -0.7071 0.7071 0.7071 -22.4323 21.0185)"/><path d="M172.4,22.2L172.4,22.2l0,1.9v0.2v1.9h0c0,1,0.9,1.9,1.9,1.9s1.9-0.8,1.9-1.9h0v-1.9v-0.2v-1.9 c0-1.1-0.9-2-2-2C173.3,20.3,172.4,21.1,172.4,22.2" class="st2"/><rect width="3.9" height="2.9" x="172.4" y="22.7" class="st9"/><rect width="3.9" height="2.9" x="172.4" y="22.7" class="st9"/><rect width="3.9" height="2.9" x="172.4" y="22.7" class="st9"/><rect width="3.9" height="2.9" x="172.4" y="22.7"/><path d="M166.2,22.2L166.2,22.2l0,1.9v0.2v1.9h0c0,1,0.9,1.9,1.9,1.9s1.9-0.8,1.9-1.9h0v-1.9v-0.2v-1.9 c0-1.1-0.9-2-2-2S166.2,21.1,166.2,22.2" class="st2"/><rect width="3.9" height="2.9" x="166.2" y="22.7" class="st9"/><rect width="3.9" height="2.9" x="166.2" y="22.7" class="st9"/><rect width="3.9" height="2.9" x="166.2" y="22.7" class="st9"/><rect width="3.9" height="2.9" x="166.2" y="22.7"/><rect width="4" height="8" x="157.9" y="56.9"/><rect width="4" height=".4" x="157.9" y="64.5" class="st4"/><rect width="4" height=".4" x="157.9" y="56.9" class="st4"/><rect width="14.4" height="6.7" x="185.4" y="68.7"/><rect width="14.4" height="6.7" x="185.4" y="68.7"/><rect width="14.4" height="6.7" x="185.4" y="68.7" class="st5"/><rect width="14.4" height="6.7" x="185.4" y="68.7" class="st9"/><rect width="5.4" height="2" x="198.7" y="71.1" class="st2"/><rect width="5.4" height="2" x="182.1" y="71.1" class="st2"/><path d="M209.9,97.3v-7.1c0-2.4,1.9-4.3,4.4-4.3c2.4,0,4.3,2,4.3,4.3v7.1H209.9z" class="st12"/><path d="M211.4,90.1c0-1.6,1.3-2.8,2.8-2.8c1.6,0,2.8,1.3,2.8,2.8c0,1.6-1.3,2.8-2.8,2.8 C212.7,92.9,211.4,91.7,211.4,90.1" class="st9"/><path d="M211.4,97.3c0-1.6,1.3-2.8,2.8-2.8c1.6,0,2.8,1.3,2.8,2.8H211.4z" class="st13"/><path d="M196.1,97.3v-7.1c0-2.4,1.9-4.3,4.4-4.3c2.4,0,4.3,2,4.3,4.3v7.1H196.1z" class="st12"/><path d="M197.7,90.1c0-1.6,1.3-2.8,2.8-2.8c1.6,0,2.8,1.3,2.8,2.8c0,1.6-1.3,2.8-2.8,2.8 C198.9,92.9,197.7,91.7,197.7,90.1" class="st9"/><path d="M197.7,97.3c0-1.6,1.3-2.8,2.8-2.8c1.6,0,2.8,1.3,2.8,2.8H197.7z" class="st13"/><path d="M182.4,97.3v-7.1c0-2.4,1.9-4.3,4.4-4.3c2.4,0,4.3,2,4.3,4.3v7.1H182.4z" class="st12"/><path d="M183.9,90.1c0-1.6,1.3-2.8,2.8-2.8c1.6,0,2.8,1.3,2.8,2.8c0,1.6-1.3,2.8-2.8,2.8 C185.2,92.9,183.9,91.7,183.9,90.1" class="st9"/><path d="M183.9,97.3c0-1.6,1.3-2.8,2.8-2.8c1.6,0,2.8,1.3,2.8,2.8H183.9z" class="st13"/><path d="M168.7,97.3v-7.1c0-2.4,1.9-4.3,4.4-4.3c2.4,0,4.3,2,4.3,4.3v7.1H168.7z" class="st12"/><path d="M170.2,90.1c0-1.6,1.3-2.8,2.8-2.8c1.6,0,2.8,1.3,2.8,2.8c0,1.6-1.3,2.8-2.8,2.8 C171.5,92.9,170.2,91.7,170.2,90.1" class="st9"/><path d="M170.2,97.3c0-1.6,1.3-2.8,2.8-2.8c1.6,0,2.8,1.3,2.8,2.8H170.2z" class="st13"/><path d="M154.9,97.3v-7.1c0-2.4,1.9-4.3,4.4-4.3c2.4,0,4.3,2,4.3,4.3v7.1H154.9z" class="st12"/><path d="M156.5,90.1c0-1.6,1.3-2.8,2.8-2.8c1.6,0,2.8,1.3,2.8,2.8c0,1.6-1.3,2.8-2.8,2.8 C157.7,92.9,156.5,91.7,156.5,90.1" class="st9"/><path d="M156.5,97.3c0-1.6,1.3-2.8,2.8-2.8c1.6,0,2.8,1.3,2.8,2.8H156.5z" class="st13"/><path d="M141.2,97.3v-7.1c0-2.4,1.9-4.3,4.4-4.3c2.4,0,4.3,2,4.3,4.3v7.1H141.2z" class="st12"/><path d="M142.7,90.1c0-1.6,1.3-2.8,2.8-2.8c1.6,0,2.8,1.3,2.8,2.8c0,1.6-1.3,2.8-2.8,2.8 C144,92.9,142.7,91.7,142.7,90.1" class="st9"/><path d="M142.7,97.3c0-1.6,1.3-2.8,2.8-2.8c1.6,0,2.8,1.3,2.8,2.8H142.7z" class="st13"/><path d="M127.5,97.3v-7.1c0-2.4,1.9-4.3,4.4-4.3c2.4,0,4.3,2,4.3,4.3v7.1H127.5z" class="st12"/><path d="M129,90.1c0-1.6,1.3-2.8,2.8-2.8c1.6,0,2.8,1.3,2.8,2.8c0,1.6-1.3,2.8-2.8,2.8C130.3,92.9,129,91.7,129,90.1" class="st9"/><path d="M129,97.3c0-1.6,1.3-2.8,2.8-2.8c1.6,0,2.8,1.3,2.8,2.8H129z" class="st13"/><path d="M113.7,97.3v-7.1c0-2.4,1.9-4.3,4.4-4.3c2.4,0,4.3,2,4.3,4.3v7.1H113.7z" class="st12"/><path d="M115.2,90.1c0-1.6,1.3-2.8,2.8-2.8c1.6,0,2.8,1.3,2.8,2.8c0,1.6-1.3,2.8-2.8,2.8 C116.5,92.9,115.2,91.7,115.2,90.1" class="st9"/><path d="M115.3,97.3c0-1.6,1.3-2.8,2.8-2.8c1.6,0,2.8,1.3,2.8,2.8H115.3z" class="st13"/><path d="M100,97.3v-7.1c0-2.4,1.9-4.3,4.4-4.3c2.4,0,4.3,2,4.3,4.3v7.1H100z" class="st12"/><path d="M101.5,90.1c0-1.6,1.3-2.8,2.8-2.8c1.6,0,2.8,1.3,2.8,2.8c0,1.6-1.3,2.8-2.8,2.8 C102.8,92.9,101.5,91.7,101.5,90.1" class="st9"/><path d="M101.5,97.3c0-1.6,1.3-2.8,2.8-2.8c1.6,0,2.8,1.3,2.8,2.8H101.5z" class="st13"/><path d="M86.3,97.3v-7.1c0-2.4,1.9-4.3,4.4-4.3c2.4,0,4.3,2,4.3,4.3v7.1H86.3z" class="st12"/><path d="M87.8,90.1c0-1.6,1.3-2.8,2.8-2.8c1.6,0,2.8,1.3,2.8,2.8c0,1.6-1.3,2.8-2.8,2.8C89,92.9,87.8,91.7,87.8,90.1" class="st9"/><path d="M87.8,97.3c0-1.6,1.3-2.8,2.8-2.8c1.6,0,2.8,1.3,2.8,2.8H87.8z" class="st13"/><path d="M72.5,97.3v-7.1c0-2.4,1.9-4.3,4.4-4.3c2.4,0,4.3,2,4.3,4.3v7.1H72.5z" class="st12"/><path d="M74,90.1c0-1.6,1.3-2.8,2.8-2.8c1.6,0,2.8,1.3,2.8,2.8c0,1.6-1.3,2.8-2.8,2.8C75.3,92.9,74,91.7,74,90.1" class="st9"/><path d="M74,97.3c0-1.6,1.3-2.8,2.8-2.8c1.6,0,2.8,1.3,2.8,2.8H74z" class="st13"/><path d="M58.8,97.3v-7.1c0-2.4,1.9-4.3,4.4-4.3c2.4,0,4.3,2,4.3,4.3v7.1H58.8z" class="st12"/><path d="M60.3,90.1c0-1.6,1.3-2.8,2.8-2.8c1.6,0,2.8,1.3,2.8,2.8c0,1.6-1.3,2.8-2.8,2.8C61.6,92.9,60.3,91.7,60.3,90.1" class="st9"/><path d="M60.3,97.3c0-1.6,1.3-2.8,2.8-2.8c1.6,0,2.8,1.3,2.8,2.8H60.3z" class="st13"/><path d="M45,97.3v-7.1c0-2.4,1.9-4.3,4.4-4.3c2.4,0,4.3,2,4.3,4.3v7.1H45z" class="st12"/><path d="M46.6,90.1c0-1.6,1.3-2.8,2.8-2.8c1.6,0,2.8,1.3,2.8,2.8c0,1.6-1.3,2.8-2.8,2.8C47.8,92.9,46.6,91.7,46.6,90.1" class="st9"/><path d="M46.6,97.3c0-1.6,1.3-2.8,2.8-2.8c1.6,0,2.8,1.3,2.8,2.8H46.6z" class="st13"/><path d="M31.3,97.3v-7.1c0-2.4,1.9-4.3,4.4-4.3c2.4,0,4.3,2,4.3,4.3v7.1H31.3z" class="st12"/><path d="M32.8,90.1c0-1.6,1.3-2.8,2.8-2.8c1.6,0,2.8,1.3,2.8,2.8c0,1.6-1.3,2.8-2.8,2.8C34.1,92.9,32.8,91.7,32.8,90.1" class="st9"/><path d="M32.8,97.3c0-1.6,1.3-2.8,2.8-2.8c1.6,0,2.8,1.3,2.8,2.8H32.8z" class="st13"/><path d="M17.6,97.3v-7.1c0-2.4,1.9-4.3,4.4-4.3c2.4,0,4.3,2,4.3,4.3v7.1H17.6z" class="st12"/><path d="M19.1,90.1c0-1.6,1.3-2.8,2.8-2.8c1.6,0,2.8,1.3,2.8,2.8c0,1.6-1.3,2.8-2.8,2.8C20.4,92.9,19.1,91.7,19.1,90.1" class="st9"/><path d="M19.1,97.3c0-1.6,1.3-2.8,2.8-2.8c1.6,0,2.8,1.3,2.8,2.8H19.1z" class="st13"/><path d="M26.3,0v7.1c0,2.4-2,4.3-4.4,4.3c-2.4,0-4.3-2-4.3-4.3V0H26.3z" class="st12"/><path d="M24.8,7.2c0,1.6-1.3,2.8-2.8,2.8c-1.6,0-2.8-1.3-2.8-2.8c0-1.6,1.3-2.8,2.8-2.8C23.5,4.3,24.8,5.6,24.8,7.2" class="st9"/><path d="M24.8,0c0,1.6-1.3,2.8-2.8,2.8c-1.6,0-2.8-1.3-2.8-2.8H24.8z" class="st13"/><path d="M40,0v7.1c0,2.4-2,4.3-4.4,4.3c-2.4,0-4.3-2-4.3-4.3V0H40z" class="st12"/><path d="M38.5,7.2c0,1.6-1.3,2.8-2.8,2.8c-1.6,0-2.8-1.3-2.8-2.8c0-1.6,1.3-2.8,2.8-2.8C37.2,4.3,38.5,5.6,38.5,7.2" class="st9"/><path d="M38.5,0c0,1.6-1.3,2.8-2.8,2.8c-1.6,0-2.8-1.3-2.8-2.8H38.5z" class="st13"/><path d="M53.8,0v7.1c0,2.4-2,4.3-4.4,4.3c-2.4,0-4.3-2-4.3-4.3V0H53.8z" class="st12"/><path d="M52.2,7.2c0,1.6-1.3,2.8-2.8,2.8c-1.6,0-2.8-1.3-2.8-2.8c0-1.6,1.3-2.8,2.8-2.8C51,4.3,52.2,5.6,52.2,7.2" class="st9"/><path d="M52.2,0c0,1.6-1.3,2.8-2.8,2.8c-1.6,0-2.8-1.3-2.8-2.8H52.2z" class="st13"/><path d="M67.5,0v7.1c0,2.4-2,4.3-4.4,4.3c-2.4,0-4.3-2-4.3-4.3V0H67.5z" class="st12"/><path d="M66,7.2c0,1.6-1.3,2.8-2.8,2.8c-1.6,0-2.8-1.3-2.8-2.8c0-1.6,1.3-2.8,2.8-2.8C64.7,4.3,66,5.6,66,7.2" class="st9"/><path d="M66,0c0,1.6-1.3,2.8-2.8,2.8c-1.6,0-2.8-1.3-2.8-2.8H66z" class="st13"/><path d="M81.2,0v7.1c0,2.4-2,4.3-4.4,4.3c-2.4,0-4.3-2-4.3-4.3V0H81.2z" class="st12"/><path d="M79.7,7.2c0,1.6-1.3,2.8-2.8,2.8C75.3,10,74,8.7,74,7.2c0-1.6,1.3-2.8,2.8-2.8C78.4,4.3,79.7,5.6,79.7,7.2" class="st9"/><path d="M79.7,0c0,1.6-1.3,2.8-2.8,2.8C75.3,2.8,74,1.6,74,0H79.7z" class="st13"/><path d="M95,0v7.1c0,2.4-2,4.3-4.4,4.3c-2.4,0-4.3-2-4.3-4.3V0H95z" class="st12"/><path d="M93.4,7.2c0,1.6-1.3,2.8-2.8,2.8c-1.6,0-2.8-1.3-2.8-2.8c0-1.6,1.3-2.8,2.8-2.8C92.2,4.3,93.4,5.6,93.4,7.2" class="st9"/><path d="M93.4,0c0,1.6-1.3,2.8-2.8,2.8c-1.6,0-2.8-1.3-2.8-2.8H93.4z" class="st13"/><path d="M108.7,0v7.1c0,2.4-2,4.3-4.4,4.3c-2.4,0-4.3-2-4.3-4.3V0H108.7z" class="st12"/><path d="M107.2,7.2c0,1.6-1.3,2.8-2.8,2.8c-1.6,0-2.8-1.3-2.8-2.8c0-1.6,1.3-2.8,2.8-2.8 C105.9,4.3,107.2,5.6,107.2,7.2" class="st9"/><path d="M107.2,0c0,1.6-1.3,2.8-2.8,2.8c-1.6,0-2.8-1.3-2.8-2.8H107.2z" class="st13"/><path d="M122.4,0v7.1c0,2.4-2,4.3-4.4,4.3c-2.4,0-4.3-2-4.3-4.3V0H122.4z" class="st12"/><path d="M120.9,7.2c0,1.6-1.3,2.8-2.8,2.8c-1.6,0-2.8-1.3-2.8-2.8c0-1.6,1.3-2.8,2.8-2.8 C119.6,4.3,120.9,5.6,120.9,7.2" class="st9"/><path d="M120.9,0c0,1.6-1.3,2.8-2.8,2.8c-1.6,0-2.8-1.3-2.8-2.8H120.9z" class="st13"/><path d="M136.2,0v7.1c0,2.4-2,4.3-4.4,4.3c-2.4,0-4.3-2-4.3-4.3V0H136.2z" class="st12"/><path d="M134.7,7.2c0,1.6-1.3,2.8-2.8,2.8c-1.6,0-2.8-1.3-2.8-2.8c0-1.6,1.3-2.8,2.8-2.8 C133.4,4.3,134.7,5.6,134.7,7.2" class="st9"/><path d="M134.6,0c0,1.6-1.3,2.8-2.8,2.8c-1.6,0-2.8-1.3-2.8-2.8H134.6z" class="st13"/><path d="M149.9,0v7.1c0,2.4-2,4.3-4.4,4.3c-2.4,0-4.3-2-4.3-4.3V0H149.9z" class="st12"/><path d="M148.4,7.2c0,1.6-1.3,2.8-2.8,2.8c-1.6,0-2.8-1.3-2.8-2.8c0-1.6,1.3-2.8,2.8-2.8 C147.1,4.3,148.4,5.6,148.4,7.2" class="st9"/><path d="M148.4,0c0,1.6-1.3,2.8-2.8,2.8c-1.6,0-2.8-1.3-2.8-2.8H148.4z" class="st13"/><path d="M163.6,0v7.1c0,2.4-2,4.3-4.4,4.3c-2.4,0-4.3-2-4.3-4.3V0H163.6z" class="st12"/><path d="M162.1,7.2c0,1.6-1.3,2.8-2.8,2.8c-1.6,0-2.8-1.3-2.8-2.8c0-1.6,1.3-2.8,2.8-2.8 C160.9,4.3,162.1,5.6,162.1,7.2" class="st9"/><path d="M162.1,0c0,1.6-1.3,2.8-2.8,2.8c-1.6,0-2.8-1.3-2.8-2.8H162.1z" class="st13"/><path d="M177.4,0v7.1c0,2.4-2,4.3-4.4,4.3c-2.4,0-4.3-2-4.3-4.3V0H177.4z" class="st12"/><path d="M175.9,7.2c0,1.6-1.3,2.8-2.8,2.8c-1.6,0-2.8-1.3-2.8-2.8c0-1.6,1.3-2.8,2.8-2.8 C174.6,4.3,175.9,5.6,175.9,7.2" class="st9"/><path d="M175.9,0c0,1.6-1.3,2.8-2.8,2.8c-1.6,0-2.8-1.3-2.8-2.8H175.9z" class="st13"/><path d="M191.1,0v7.1c0,2.4-2,4.3-4.4,4.3c-2.4,0-4.3-2-4.3-4.3V0H191.1z" class="st12"/><path d="M189.6,7.2c0,1.6-1.3,2.8-2.8,2.8c-1.6,0-2.8-1.3-2.8-2.8c0-1.6,1.3-2.8,2.8-2.8 C188.3,4.3,189.6,5.6,189.6,7.2" class="st9"/><path d="M189.6,0c0,1.6-1.3,2.8-2.8,2.8c-1.6,0-2.8-1.3-2.8-2.8H189.6z" class="st13"/><path d="M204.9,0v7.1c0,2.4-2,4.3-4.4,4.3c-2.4,0-4.3-2-4.3-4.3V0H204.9z" class="st12"/><path d="M203.3,7.2c0,1.6-1.3,2.8-2.8,2.8c-1.6,0-2.8-1.3-2.8-2.8c0-1.6,1.3-2.8,2.8-2.8 C202.1,4.3,203.3,5.6,203.3,7.2" class="st9"/><path d="M203.3,0c0,1.6-1.3,2.8-2.8,2.8c-1.6,0-2.8-1.3-2.8-2.8H203.3z" class="st13"/><path d="M218.6,0v7.1c0,2.4-2,4.3-4.4,4.3c-2.4,0-4.3-2-4.3-4.3V0H218.6z" class="st12"/><path d="M217.1,7.2c0,1.6-1.3,2.8-2.8,2.8c-1.6,0-2.8-1.3-2.8-2.8c0-1.6,1.3-2.8,2.8-2.8 C215.8,4.3,217.1,5.6,217.1,7.2" class="st9"/><path d="M217.1,0c0,1.6-1.3,2.8-2.8,2.8c-1.6,0-2.8-1.3-2.8-2.8H217.1z" class="st13"/></g></svg>