<?xml version="1.0" encoding="utf-8"?>
<!-- Generator: Adobe Illustrator 26.0.3, SVG Export Plug-In . SVG Version: 6.00 Build 0)  -->
<svg version="1.1" id="Layer_1" xmlns="http://www.w3.org/2000/svg" xmlns:xlink="http://www.w3.org/1999/xlink" x="0px" y="0px"
	 viewBox="0 0 249.5 97.3" style="enable-background:new 0 0 249.5 97.3;" xml:space="preserve">
<style type="text/css">
	.st0{fill:#007481;}
	.st1{fill:#DADBDC;}
	.st2{fill:#8C9091;}
	.st3{fill:#C3C5C6;}
	.st4{fill:#9EA2A3;}
	.st5{fill:#E65300;}
	.st6{fill:#80BAC0;}
	.st7{fill:#EBA900;}
	.st8{fill:#1DA086;}
	.st9{fill:#8B7866;}
	.st10{fill:#929697;}
	.st11{fill:#A1CCD0;}
	.st12{fill:#C3B9AF;}
	.st13{fill:#FFFFFF;}
</style>
<g>
	<path class="st0" d="M236.2,97.3V0H0v97.3H236.2z M229.2,2.4c2.5,0,4.5,2,4.5,4.5c0,2.5-2,4.5-4.5,4.5s-4.5-2-4.5-4.5
		C224.7,4.4,226.7,2.4,229.2,2.4 M229.2,85.8c2.5,0,4.5,2,4.5,4.5c0,2.5-2,4.5-4.5,4.5s-4.5-2-4.5-4.5
		C224.7,87.8,226.7,85.8,229.2,85.8 M6.9,2.4c2.5,0,4.5,2,4.5,4.5c0,2.5-2,4.5-4.5,4.5c-2.5,0-4.5-2-4.5-4.5
		C2.4,4.4,4.4,2.4,6.9,2.4 M6.9,85.8c2.5,0,4.5,2,4.5,4.5c0,2.5-2,4.5-4.5,4.5c-2.5,0-4.5-2-4.5-4.5C2.4,87.8,4.4,85.8,6.9,85.8"/>
	<polygon class="st1" points="177.2,42.9 177.7,42.9 178.1,43 178.6,43.1 179.1,43.2 179.6,43.4 180,43.6 180.4,43.8 180.8,44.1 
		181.2,44.4 181.6,44.8 181.9,45.2 182.2,45.6 182.5,46 182.7,46.4 182.9,46.9 183,47.4 183.1,47.8 183.2,48.3 183.2,48.8 
		183.2,49.3 183.2,49.8 183.1,50.3 182.9,50.8 182.8,51.2 182.6,51.7 182.3,52.1 182.1,52.5 181.7,52.9 181.4,53.3 181,53.6 
		180.6,53.9 180.2,54.2 179.8,54.4 179.3,54.6 178.9,54.8 178.4,54.9 177.9,55 177.4,55 176.9,55 176.4,55 175.9,54.9 175.4,54.8 
		175,54.6 174.5,54.4 174.1,54.2 173.7,53.9 173.3,53.6 172.9,53.3 172.6,52.9 172.3,52.5 172,52.1 171.7,51.7 171.5,51.2 
		171.4,50.8 171.2,50.3 171.2,49.8 171.1,49.3 171.1,48.8 171.1,48.3 171.2,47.8 171.3,47.4 171.4,46.9 171.6,46.4 171.9,46 
		172.1,45.6 172.4,45.2 172.7,44.8 173.1,44.4 173.5,44.1 173.9,43.8 174.3,43.6 174.8,43.4 175.2,43.2 175.7,43.1 176.2,43 
		176.7,42.9 	"/>
	<rect x="173" y="36" class="st2" width="8.6" height="3.3"/>
	<rect x="173" y="57.9" class="st2" width="8.6" height="3.3"/>
	<path class="st3" d="M184.3,58.6V38.2h-14.1v20.4H184.3z M172.3,47.2l0.2-0.4l0.2-0.4l0.2-0.4l0.5-0.7l0.3-0.3l0.3-0.3l0.3-0.2
		l0.4-0.2l0.4-0.2l0.4-0.2l0.4-0.1l0.4-0.1l0.4-0.1l0.4,0l0.4,0l0.4,0.1l0.4,0.1l0.4,0.1l0.4,0.2l0.4,0.2l0.4,0.2l0.3,0.2l0.3,0.3
		l0.3,0.3l0.3,0.3l0.3,0.3l0.2,0.4l0.2,0.4l0.2,0.4l0.1,0.4l0.1,0.4l0.1,0.4l0,0.4v0.4l-0.1,0.4l-0.1,0.4l-0.1,0.4l-0.2,0.4
		l-0.2,0.4l-0.2,0.3l-0.3,0.4l-0.3,0.3l-0.3,0.3l-0.3,0.3l-0.3,0.3l-0.4,0.2l-0.4,0.2l-0.4,0.2l-0.4,0.1l-0.4,0.1l-0.4,0.1l-0.4,0
		h-0.4l-0.4,0l-0.4-0.1l-0.4-0.1l-0.4-0.1l-0.4-0.2l-0.4-0.2l-0.3-0.2l-0.3-0.3l-0.3-0.3l-0.3-0.3L173,52l-0.2-0.4l-0.2-0.3
		l-0.2-0.4l-0.1-0.4l-0.1-0.4l-0.1-0.4l0-0.4l0-0.4l0-0.4l0.1-0.4l0.1-0.4L172.3,47.2z"/>
	<path class="st3" d="M210,57.9h8c0.2,0,0.4-0.2,0.4-0.4v-2.1c0-0.2-0.2-0.4-0.4-0.4h-8c-0.2,0-0.4,0.2-0.4,0.4v2.1
		C209.7,57.7,209.8,57.9,210,57.9"/>
	<path class="st3" d="M210,53.8h8c0.2,0,0.4-0.2,0.4-0.4v-2.1c0-0.2-0.2-0.4-0.4-0.4h-8c-0.2,0-0.4,0.2-0.4,0.4v2.1
		C209.7,53.6,209.8,53.8,210,53.8"/>
	<path class="st3" d="M210,49.6h8c0.2,0,0.4-0.2,0.4-0.4v-2.2c0-0.2-0.2-0.4-0.4-0.4h-8c-0.2,0-0.4,0.2-0.4,0.4v2.2
		C209.7,49.5,209.8,49.6,210,49.6"/>
	<path class="st3" d="M210,45.5h8c0.2,0,0.4-0.2,0.4-0.4V43c0-0.2-0.2-0.4-0.4-0.4h-8c-0.2,0-0.4,0.2-0.4,0.4v2.1
		C209.7,45.4,209.8,45.5,210,45.5"/>
	<path class="st3" d="M210,41.4h8c0.2,0,0.4-0.2,0.4-0.4v-2.1c0-0.2-0.2-0.4-0.4-0.4h-8c-0.2,0-0.4,0.2-0.4,0.4v2.1
		C209.7,41.3,209.8,41.4,210,41.4"/>
	<rect x="214.3" y="25.6" class="st4" width="35.3" height="46"/>
	<polygon class="st2" points="217.8,25.6 214.3,25.6 214.3,25.7 214.3,71.5 214.3,71.6 217.8,71.6 217.8,71.5 	"/>
	<polygon class="st2" points="224.8,25.6 221.3,25.6 221.3,25.7 221.3,71.5 221.3,71.6 224.8,71.6 224.8,71.5 	"/>
	<polygon class="st2" points="231.9,25.6 228.4,25.6 228.4,25.7 228.4,71.5 228.4,71.6 231.9,71.6 231.9,71.5 	"/>
	<polygon class="st2" points="238.9,25.6 235.4,25.6 235.4,25.7 235.4,71.5 235.4,71.6 238.9,71.6 238.9,71.5 	"/>
	<polygon class="st2" points="246,25.6 242.5,25.6 242.5,25.7 242.5,71.5 242.5,71.6 246,71.6 246,71.5 	"/>
	
		<rect x="45.9" y="30.3" transform="matrix(0.7071 -0.7071 0.7071 0.7071 -15.5834 59.6344)" class="st0" width="36.7" height="36.7"/>
	
		<rect x="45.9" y="30.3" transform="matrix(0.7071 -0.7071 0.7071 0.7071 -15.5834 59.6344)" class="st5" width="36.7" height="36.7"/>
	<rect x="45.9" y="30.3" transform="matrix(0.7071 -0.7071 0.7071 0.7071 -15.5834 59.6344)" width="36.7" height="36.7"/>
	<rect x="64.7" y="25" transform="matrix(0.7071 -0.7071 0.7071 0.7071 1.119 55.978)" class="st2" width="6.9" height="3.4"/>
	<rect x="68.3" y="28.6" transform="matrix(0.7071 -0.7071 0.7071 0.7071 -0.3764 59.5884)" class="st2" width="6.9" height="3.4"/>
	<rect x="71.9" y="32.2" transform="matrix(0.7071 -0.7071 0.7071 0.7071 -1.872 63.199)" class="st2" width="6.9" height="3.4"/>
	<rect x="75.5" y="35.8" transform="matrix(0.7071 -0.7071 0.7071 0.7071 -3.3675 66.8093)" class="st2" width="6.9" height="3.4"/>
	<rect x="79.1" y="39.4" transform="matrix(0.7071 -0.7071 0.7071 0.7071 -4.863 70.4197)" class="st2" width="6.9" height="3.4"/>
	<rect x="82.7" y="43" transform="matrix(0.7071 -0.7071 0.7071 0.7071 -6.3584 74.0305)" class="st2" width="6.9" height="3.4"/>
	
		<rect x="38.8" y="50.9" transform="matrix(0.7071 -0.7071 0.7071 0.7071 -24.8084 45.2386)" class="st2" width="6.9" height="3.4"/>
	
		<rect x="42.4" y="54.5" transform="matrix(0.7071 -0.7071 0.7071 0.7071 -26.3038 48.8489)" class="st2" width="6.9" height="3.4"/>
	<rect x="46" y="58.1" transform="matrix(0.7071 -0.7071 0.7071 0.7071 -27.7994 52.4596)" class="st2" width="6.9" height="3.4"/>
	<rect x="49.6" y="61.7" transform="matrix(0.7071 -0.7071 0.7071 0.7071 -29.2948 56.07)" class="st2" width="6.9" height="3.4"/>
	
		<rect x="53.2" y="65.3" transform="matrix(0.7071 -0.7071 0.7071 0.7071 -30.7903 59.6804)" class="st2" width="6.9" height="3.4"/>
	<rect x="56.8" y="68.9" transform="matrix(0.7071 -0.7071 0.7071 0.7071 -32.2858 63.291)" class="st2" width="6.9" height="3.4"/>
	<rect x="84.5" y="49.1" transform="matrix(0.7071 -0.7071 0.7071 0.7071 -11.9268 76.337)" class="st2" width="3.4" height="6.9"/>
	
		<rect x="80.9" y="52.7" transform="matrix(0.7071 -0.7071 0.7071 0.7071 -15.5371 74.8417)" class="st2" width="3.4" height="6.9"/>
	
		<rect x="77.3" y="56.3" transform="matrix(0.7071 -0.7071 0.7071 0.7071 -19.1479 73.3463)" class="st2" width="3.4" height="6.9"/>
	<rect x="73.7" y="60" transform="matrix(0.7071 -0.7071 0.7071 0.7071 -22.7582 71.8505)" class="st2" width="3.4" height="6.9"/>
	
		<rect x="70.1" y="63.6" transform="matrix(0.7071 -0.7071 0.7071 0.7071 -26.3686 70.3551)" class="st2" width="3.4" height="6.9"/>
	
		<rect x="66.5" y="67.2" transform="matrix(0.7071 -0.7071 0.7071 0.7071 -29.9793 68.8597)" class="st2" width="3.4" height="6.9"/>
	<rect x="58.6" y="23.2" transform="matrix(0.7071 -0.7071 0.7071 0.7071 -1.1874 50.4097)" class="st2" width="3.4" height="6.9"/>
	<rect x="55" y="26.8" transform="matrix(0.7071 -0.7071 0.7071 0.7071 -4.7977 48.9143)" class="st2" width="3.4" height="6.9"/>
	<rect x="51.4" y="30.4" transform="matrix(0.7071 -0.7071 0.7071 0.7071 -8.4086 47.4188)" class="st2" width="3.4" height="6.9"/>
	<rect x="47.7" y="34" transform="matrix(0.7071 -0.7071 0.7071 0.7071 -12.0188 45.9233)" class="st2" width="3.4" height="6.9"/>
	
		<rect x="44.1" y="37.6" transform="matrix(0.7071 -0.7071 0.7071 0.7071 -15.6292 44.4278)" class="st2" width="3.4" height="6.9"/>
	<rect x="40.5" y="41.2" transform="matrix(0.7071 -0.7071 0.7071 0.7071 -19.24 42.9324)" class="st2" width="3.4" height="6.9"/>
	<rect x="114.2" y="37.7" class="st0" width="21.9" height="21.9"/>
	<rect x="114.2" y="37.7" class="st5" width="21.9" height="21.9"/>
	<rect x="114.2" y="37.7" width="21.9" height="21.9"/>
	<rect x="116.5" y="35.6" class="st2" width="2" height="4.1"/>
	<rect x="119.6" y="35.6" class="st2" width="2" height="4.1"/>
	<rect x="122.6" y="35.6" class="st2" width="2" height="4.1"/>
	<rect x="125.7" y="35.6" class="st2" width="2" height="4.1"/>
	<rect x="128.7" y="35.6" class="st2" width="2" height="4.1"/>
	<rect x="131.8" y="35.6" class="st2" width="2" height="4.1"/>
	<rect x="116.5" y="57.5" class="st2" width="2" height="4.1"/>
	<rect x="119.6" y="57.5" class="st2" width="2" height="4.1"/>
	<rect x="122.6" y="57.5" class="st2" width="2" height="4.1"/>
	<rect x="125.7" y="57.5" class="st2" width="2" height="4.1"/>
	<rect x="128.7" y="57.5" class="st2" width="2" height="4.1"/>
	<rect x="131.8" y="57.5" class="st2" width="2" height="4.1"/>
	<rect x="134" y="40" class="st2" width="4.1" height="2"/>
	<rect x="134" y="43" class="st2" width="4.1" height="2"/>
	<rect x="134" y="46.1" class="st2" width="4.1" height="2"/>
	<rect x="134" y="49.1" class="st2" width="4.1" height="2"/>
	<rect x="134" y="52.2" class="st2" width="4.1" height="2"/>
	<rect x="134" y="55.3" class="st2" width="4.1" height="2"/>
	<rect x="112.1" y="40" class="st2" width="4.1" height="2"/>
	<rect x="112.1" y="43" class="st2" width="4.1" height="2"/>
	<rect x="112.1" y="46.1" class="st2" width="4.1" height="2"/>
	<rect x="112.1" y="49.1" class="st2" width="4.1" height="2"/>
	<rect x="112.1" y="52.2" class="st2" width="4.1" height="2"/>
	<rect x="112.1" y="55.3" class="st2" width="4.1" height="2"/>
	<rect x="140.3" y="37.4" class="st6" width="19.8" height="1.9"/>
	<rect x="154.7" y="41.6" class="st6" width="1.9" height="3.6"/>
	<rect x="152" y="41.6" class="st6" width="1.9" height="3.6"/>
	<rect x="149.3" y="41.6" class="st6" width="1.9" height="3.6"/>
	<rect x="146.6" y="41.6" class="st6" width="1.9" height="3.6"/>
	<rect x="143.9" y="41.6" class="st6" width="1.9" height="3.6"/>
	<rect x="140.3" y="33.8" class="st6" width="19.8" height="1.9"/>
	<rect x="140.3" y="30.2" class="st6" width="19.8" height="1.9"/>
	<rect x="140.3" y="26.6" class="st6" width="19.8" height="1.9"/>
	<rect x="140.3" y="23" class="st6" width="19.8" height="1.9"/>
	<rect x="140.3" y="19.3" class="st6" width="19.8" height="1.9"/>
	<polygon points="142.3,43.4 144.2,43.4 158.2,43.4 158.2,40.9 158.2,40.9 158.2,16.1 156.3,16.1 144.2,16.1 144.2,16.1 142.4,16.1 
			"/>
	<rect x="93.5" y="42.5" class="st2" width="4.9" height="12.2"/>
	<path class="st7" d="M95.9,44.8c2.1,0,3.8,1.7,3.8,3.8c0,2.1-1.7,3.8-3.8,3.8c-2.1,0-3.8-1.7-3.8-3.8
		C92.2,46.5,93.9,44.8,95.9,44.8"/>
	<rect x="101.8" y="42.5" class="st2" width="4.9" height="12.2"/>
	<path class="st7" d="M104.2,44.8c2.1,0,3.8,1.7,3.8,3.8c0,2.1-1.7,3.8-3.8,3.8c-2.1,0-3.8-1.7-3.8-3.8
		C100.5,46.5,102.2,44.8,104.2,44.8"/>
	<rect x="219.4" y="15" class="st2" width="12.2" height="4.9"/>
	<path class="st7" d="M221.7,17.5c0-2.1,1.7-3.8,3.8-3.8c2.1,0,3.8,1.7,3.8,3.8c0,2.1-1.7,3.8-3.8,3.8
		C223.4,21.2,221.7,19.5,221.7,17.5"/>
	<rect x="219.4" y="77.2" class="st2" width="12.2" height="4.9"/>
	<path class="st8" d="M221.7,79.6c0-2.1,1.7-3.8,3.8-3.8c2.1,0,3.8,1.7,3.8,3.8c0,2.1-1.7,3.8-3.8,3.8
		C223.4,83.4,221.7,81.7,221.7,79.6"/>
	<rect x="161.3" y="67.7" class="st2" width="4.3" height="8.7"/>
	<rect x="150.2" y="67.7" class="st2" width="4.3" height="8.7"/>
	<path class="st9" d="M154.1,68.7c-0.9,0-1.7,0.8-1.7,1.7v3.4c0,0.9,0.8,1.7,1.7,1.7h0.5v-6.8H154.1z"/>
	<path class="st9" d="M161.7,75.4c0.9,0,1.7-0.8,1.7-1.7v-3.4c0-0.9-0.8-1.7-1.7-1.7h-0.5v6.8H161.7z"/>
	<rect x="154.5" y="68.7" class="st0" width="6.7" height="6.8"/>
	<rect x="154.5" y="68.7" class="st5" width="6.7" height="6.8"/>
	<rect x="154.5" y="68.7" width="6.7" height="6.8"/>
	<rect x="200.8" y="31.4" class="st2" width="4.3" height="8.7"/>
	<rect x="189.8" y="31.4" class="st2" width="4.3" height="8.7"/>
	<path class="st9" d="M193.6,32.4c-0.9,0-1.7,0.8-1.7,1.7v3.4c0,0.9,0.8,1.7,1.7,1.7h0.5v-6.8H193.6z"/>
	<path class="st9" d="M201.3,39.2c0.9,0,1.7-0.8,1.7-1.7v-3.4c0-0.9-0.8-1.7-1.7-1.7h-0.5v6.8H201.3z"/>
	<rect x="194.1" y="32.4" class="st0" width="6.7" height="6.8"/>
	<rect x="194.1" y="32.4" class="st5" width="6.7" height="6.8"/>
	<rect x="194.1" y="32.4" width="6.7" height="6.8"/>
	<rect x="2.1" y="42.9" class="st2" width="8.7" height="4.3"/>
	<rect x="2.1" y="54" class="st2" width="8.7" height="4.3"/>
	<path class="st9" d="M3.1,54.4c0,0.9,0.8,1.7,1.7,1.7h3.4c0.9,0,1.7-0.8,1.7-1.7V54H3.1V54.4z"/>
	<path class="st9" d="M9.8,46.8c0-0.9-0.8-1.7-1.7-1.7H4.8c-0.9,0-1.7,0.8-1.7,1.7v0.5h6.8V46.8z"/>
	<rect x="3.1" y="47.2" class="st0" width="6.8" height="6.7"/>
	<rect x="3.1" y="47.2" class="st5" width="6.8" height="6.7"/>
	<rect x="3.1" y="47.2" width="6.8" height="6.7"/>
	<path class="st2" d="M197.3,16.1c-0.5,0-0.8,0.4-0.8,0.8h1.6C198.1,16.4,197.7,16.1,197.3,16.1"/>
	<path class="st2" d="M197.3,24c0.5,0,0.8-0.4,0.8-0.8h-1.6C196.5,23.6,196.8,24,197.3,24"/>
	<path class="st2" d="M195.7,16.1c-0.5,0-0.8,0.4-0.8,0.8h1.6C196.5,16.4,196.1,16.1,195.7,16.1"/>
	<path class="st2" d="M195.7,24c0.5,0,0.8-0.4,0.8-0.8h-1.6C194.8,23.6,195.2,24,195.7,24"/>
	<polygon class="st0" points="196.5,23.2 196.5,23.2 198.1,23.2 198.1,22.5 198.1,22.4 198.1,21.8 198.1,21.7 198.1,21.1 198.1,21 
		198.1,20.4 198.1,20.3 198.1,19.7 198.1,19.6 198.1,19 198.1,19 198.1,18.3 198.1,18.3 198.1,17.6 198.1,17.6 198.1,16.9 
		196.5,16.9 196.5,16.9 194.8,16.9 194.8,17.6 194.8,17.6 194.8,18.3 194.8,18.3 194.8,19 194.8,19 194.8,19.6 194.8,19.7 
		194.8,20.3 194.8,20.4 194.8,21 194.8,21.1 194.8,21.7 194.8,21.8 194.8,22.4 194.8,22.5 194.8,23.2 	"/>
	<polygon class="st5" points="196.5,23.2 196.5,23.2 198.1,23.2 198.1,22.5 198.1,22.4 198.1,21.8 198.1,21.7 198.1,21.1 198.1,21 
		198.1,20.4 198.1,20.3 198.1,19.7 198.1,19.6 198.1,19 198.1,19 198.1,18.3 198.1,18.3 198.1,17.6 198.1,17.6 198.1,16.9 
		196.5,16.9 196.5,16.9 194.8,16.9 194.8,17.6 194.8,17.6 194.8,18.3 194.8,18.3 194.8,19 194.8,19 194.8,19.6 194.8,19.7 
		194.8,20.3 194.8,20.4 194.8,21 194.8,21.1 194.8,21.7 194.8,21.8 194.8,22.4 194.8,22.5 194.8,23.2 	"/>
	<polygon points="196.5,23.2 196.5,23.2 198.1,23.2 198.1,22.5 198.1,22.4 198.1,21.8 198.1,21.7 198.1,21.1 198.1,21 198.1,20.4 
		198.1,20.3 198.1,19.7 198.1,19.6 198.1,19 198.1,19 198.1,18.3 198.1,18.3 198.1,17.6 198.1,17.6 198.1,16.9 196.5,16.9 
		196.5,16.9 194.8,16.9 194.8,17.6 194.8,17.6 194.8,18.3 194.8,18.3 194.8,19 194.8,19 194.8,19.6 194.8,19.7 194.8,20.3 
		194.8,20.4 194.8,21 194.8,21.1 194.8,21.7 194.8,21.8 194.8,22.4 194.8,22.5 194.8,23.2 	"/>
	<path class="st2" d="M201.8,16.1c-0.5,0-0.8,0.4-0.8,0.8h1.6C202.6,16.4,202.2,16.1,201.8,16.1"/>
	<path class="st2" d="M201.8,24c0.5,0,0.8-0.4,0.8-0.8H201C201,23.6,201.3,24,201.8,24"/>
	<path class="st2" d="M200.1,16.1c-0.5,0-0.8,0.4-0.8,0.8h1.6C201,16.4,200.6,16.1,200.1,16.1"/>
	<path class="st2" d="M200.1,24c0.5,0,0.8-0.4,0.8-0.8h-1.6C199.3,23.6,199.7,24,200.1,24"/>
	<polygon class="st0" points="201,23.2 201,23.2 202.6,23.2 202.6,22.5 202.6,22.4 202.6,21.8 202.6,21.7 202.6,21.1 202.6,21 
		202.6,20.4 202.6,20.3 202.6,19.7 202.6,19.6 202.6,19 202.6,19 202.6,18.3 202.6,18.3 202.6,17.6 202.6,17.6 202.6,16.9 201,16.9 
		201,16.9 199.3,16.9 199.3,17.6 199.3,17.6 199.3,18.3 199.3,18.3 199.3,19 199.3,19 199.3,19.6 199.3,19.7 199.3,20.3 199.3,20.4 
		199.3,21 199.3,21.1 199.3,21.7 199.3,21.8 199.3,22.4 199.3,22.5 199.3,23.2 	"/>
	<polygon class="st5" points="201,23.2 201,23.2 202.6,23.2 202.6,22.5 202.6,22.4 202.6,21.8 202.6,21.7 202.6,21.1 202.6,21 
		202.6,20.4 202.6,20.3 202.6,19.7 202.6,19.6 202.6,19 202.6,19 202.6,18.3 202.6,18.3 202.6,17.6 202.6,17.6 202.6,16.9 201,16.9 
		201,16.9 199.3,16.9 199.3,17.6 199.3,17.6 199.3,18.3 199.3,18.3 199.3,19 199.3,19 199.3,19.6 199.3,19.7 199.3,20.3 199.3,20.4 
		199.3,21 199.3,21.1 199.3,21.7 199.3,21.8 199.3,22.4 199.3,22.5 199.3,23.2 	"/>
	<polygon points="201,23.2 201,23.2 202.6,23.2 202.6,22.5 202.6,22.4 202.6,21.8 202.6,21.7 202.6,21.1 202.6,21 202.6,20.4 
		202.6,20.3 202.6,19.7 202.6,19.6 202.6,19 202.6,19 202.6,18.3 202.6,18.3 202.6,17.6 202.6,17.6 202.6,16.9 201,16.9 201,16.9 
		199.3,16.9 199.3,17.6 199.3,17.6 199.3,18.3 199.3,18.3 199.3,19 199.3,19 199.3,19.6 199.3,19.7 199.3,20.3 199.3,20.4 199.3,21 
		199.3,21.1 199.3,21.7 199.3,21.8 199.3,22.4 199.3,22.5 199.3,23.2 	"/>
	<rect x="91.5" y="26" width="2.6" height="3.3"/>
	<rect x="93.9" y="26" class="st10" width="1.4" height="3.3"/>
	<rect x="90.1" y="26" class="st10" width="1.4" height="3.3"/>
	<rect x="100.9" y="29" width="3.3" height="2.6"/>
	<rect x="100.9" y="31.4" class="st10" width="3.3" height="1.4"/>
	<rect x="100.9" y="27.6" class="st10" width="3.3" height="1.4"/>
	<rect x="114.2" y="29" width="3.3" height="2.6"/>
	<rect x="114.2" y="31.4" class="st10" width="3.3" height="1.4"/>
	<rect x="114.2" y="27.6" class="st10" width="3.3" height="1.4"/>
	<rect x="106.5" y="29" width="3.3" height="2.6"/>
	<rect x="106.5" y="31.4" class="st10" width="3.3" height="1.4"/>
	<rect x="106.5" y="27.6" class="st10" width="3.3" height="1.4"/>
	<rect x="91.5" y="31.5" width="2.6" height="3.3"/>
	<rect x="93.9" y="31.5" class="st10" width="1.4" height="3.3"/>
	<rect x="90.1" y="31.5" class="st10" width="1.4" height="3.3"/>
	<rect x="27.2" y="49.7" width="2.6" height="3.3"/>
	<rect x="29.6" y="49.7" class="st10" width="1.4" height="3.3"/>
	<rect x="25.9" y="49.7" class="st10" width="1.4" height="3.3"/>
	<rect x="5.3" y="22.3" width="3.3" height="2.6"/>
	<rect x="5.3" y="21" class="st10" width="3.3" height="1.4"/>
	<rect x="5.3" y="24.8" class="st10" width="3.3" height="1.4"/>
	<path class="st11" d="M19.1,65.9c0.5,0.5,0.5,1.2,0,1.7c-0.5,0.5-1.2,0.5-1.7,0c-0.5-0.5-0.5-1.2,0-1.7
		C17.9,65.5,18.7,65.5,19.1,65.9"/>
	<path class="st11" d="M21.8,68.6c0.5,0.5,0.5,1.2,0,1.7c-0.5,0.5-1.2,0.5-1.7,0c-0.5-0.5-0.5-1.2,0-1.7
		C20.6,68.1,21.3,68.1,21.8,68.6"/>
	<path class="st11" d="M24.5,71.3c0.5,0.5,0.5,1.2,0,1.7c-0.5,0.5-1.2,0.5-1.7,0c-0.5-0.5-0.5-1.2,0-1.7
		C23.3,70.8,24,70.8,24.5,71.3"/>
	<path class="st11" d="M27.1,73.9c0.5,0.5,0.5,1.2,0,1.7c-0.5,0.5-1.2,0.5-1.7,0c-0.5-0.5-0.5-1.2,0-1.7
		C25.9,73.5,26.7,73.5,27.1,73.9"/>
	<path class="st11" d="M25.8,59.3c0.5,0.5,0.5,1.2,0,1.7c-0.5,0.5-1.2,0.5-1.7,0c-0.5-0.5-0.5-1.2,0-1.7
		C24.6,58.8,25.3,58.8,25.8,59.3"/>
	<path class="st11" d="M28.5,61.9c0.5,0.5,0.5,1.2,0,1.7c-0.5,0.5-1.2,0.5-1.7,0c-0.5-0.5-0.5-1.2,0-1.7
		C27.3,61.5,28,61.5,28.5,61.9"/>
	<path class="st11" d="M31.1,64.6c0.5,0.5,0.5,1.2,0,1.7c-0.5,0.5-1.2,0.5-1.7,0c-0.5-0.5-0.5-1.2,0-1.7
		C29.9,64.1,30.7,64.1,31.1,64.6"/>
	<path class="st11" d="M33.8,67.3c0.5,0.5,0.5,1.2,0,1.7c-0.5,0.5-1.2,0.5-1.7,0c-0.5-0.5-0.5-1.2,0-1.7
		C32.6,66.8,33.3,66.8,33.8,67.3"/>
	<polygon class="st0" points="30.5,72.3 32.1,70.6 22.5,60.9 20.8,62.6 19.1,64.3 28.8,73.9 	"/>
	<polygon class="st5" points="30.5,72.3 32.1,70.6 22.5,60.9 20.8,62.6 19.1,64.3 28.8,73.9 	"/>
	<polygon points="30.5,72.3 32.1,70.6 22.5,60.9 20.8,62.6 19.1,64.3 28.8,73.9 	"/>
	<rect x="31" y="67.8" transform="matrix(0.7071 -0.7071 0.7071 0.7071 -39.3343 42.9135)" class="st2" width="2.4" height="2.4"/>
	
		<rect x="28.3" y="65.1" transform="matrix(0.7071 -0.7071 0.7071 0.7071 -38.2301 40.2481)" class="st2" width="2.4" height="2.4"/>
	
		<rect x="25.6" y="62.4" transform="matrix(0.7071 -0.7071 0.7071 0.7071 -37.1247 37.5789)" class="st2" width="2.4" height="2.4"/>
	<rect x="23" y="59.8" transform="matrix(0.7071 -0.7071 0.7071 0.7071 -36.0209 34.9149)" class="st2" width="2.4" height="2.4"/>
	<rect x="26" y="72.8" transform="matrix(0.7071 -0.7071 0.7071 0.7071 -44.3362 40.841)" class="st2" width="2.4" height="2.4"/>
	<rect x="23.3" y="70.1" transform="matrix(0.7071 -0.7071 0.7071 0.7071 -43.232 38.1756)" class="st2" width="2.4" height="2.4"/>
	
		<rect x="20.6" y="67.4" transform="matrix(0.7071 -0.7071 0.7071 0.7071 -42.1263 35.5062)" class="st2" width="2.4" height="2.4"/>
	<rect x="18" y="64.8" transform="matrix(0.7071 -0.7071 0.7071 0.7071 -41.0229 32.8423)" class="st2" width="2.4" height="2.4"/>
	<path class="st11" d="M24.1,40.9c0.5-0.5,1.2-0.5,1.7,0c0.5,0.5,0.5,1.2,0,1.7c-0.5,0.5-1.2,0.5-1.7,0
		C23.7,42.1,23.7,41.4,24.1,40.9"/>
	<path class="st11" d="M26.8,38.2c0.5-0.5,1.2-0.5,1.7,0c0.5,0.5,0.5,1.2,0,1.7c-0.5,0.5-1.2,0.5-1.7,0
		C26.3,39.4,26.3,38.7,26.8,38.2"/>
	<path class="st11" d="M29.5,35.6c0.5-0.5,1.2-0.5,1.7,0c0.5,0.5,0.5,1.2,0,1.7c-0.5,0.5-1.2,0.5-1.7,0C29,36.8,29,36,29.5,35.6"/>
	<path class="st11" d="M32.1,32.9c0.5-0.5,1.2-0.5,1.7,0c0.5,0.5,0.5,1.2,0,1.7c-0.5,0.5-1.2,0.5-1.7,0
		C31.7,34.1,31.7,33.4,32.1,32.9"/>
	<path class="st11" d="M17.5,34.2c0.5-0.5,1.2-0.5,1.7,0c0.5,0.5,0.5,1.2,0,1.7c-0.5,0.5-1.2,0.5-1.7,0C17,35.4,17,34.7,17.5,34.2"
		/>
	<path class="st11" d="M20.1,31.6c0.5-0.5,1.2-0.5,1.7,0c0.5,0.5,0.5,1.2,0,1.7c-0.5,0.5-1.2,0.5-1.7,0C19.7,32.8,19.7,32,20.1,31.6
		"/>
	<path class="st11" d="M22.8,28.9c0.5-0.5,1.2-0.5,1.7,0c0.5,0.5,0.5,1.2,0,1.7c-0.5,0.5-1.2,0.5-1.7,0
		C22.3,30.1,22.3,29.4,22.8,28.9"/>
	<path class="st11" d="M25.5,26.2c0.5-0.5,1.2-0.5,1.7,0c0.5,0.5,0.5,1.2,0,1.7c-0.5,0.5-1.2,0.5-1.7,0C25,27.4,25,26.7,25.5,26.2"
		/>
	<polygon class="st0" points="30.5,29.6 28.8,27.9 19.1,37.6 20.8,39.2 22.5,40.9 32.1,31.2 	"/>
	<polygon class="st5" points="30.5,29.6 28.8,27.9 19.1,37.6 20.8,39.2 22.5,40.9 32.1,31.2 	"/>
	<polygon points="30.5,29.6 28.8,27.9 19.1,37.6 20.8,39.2 22.5,40.9 32.1,31.2 	"/>
	
		<rect x="25.9" y="26.7" transform="matrix(0.7071 -0.7071 0.7071 0.7071 -11.7776 27.3529)" class="st2" width="2.4" height="2.4"/>
	<rect x="23.3" y="29.4" transform="matrix(0.7071 -0.7071 0.7071 0.7071 -14.443 26.2488)" class="st2" width="2.4" height="2.4"/>
	<rect x="20.6" y="32.1" transform="matrix(0.7071 -0.7071 0.7071 0.7071 -17.1123 25.143)" class="st2" width="2.4" height="2.4"/>
	<rect x="18" y="34.7" transform="matrix(0.7071 -0.7071 0.7071 0.7071 -19.7763 24.0396)" class="st2" width="2.4" height="2.4"/>
	<rect x="31" y="31.7" transform="matrix(0.7071 -0.7071 0.7071 0.7071 -13.8494 32.3556)" class="st2" width="2.4" height="2.4"/>
	<rect x="28.3" y="34.4" transform="matrix(0.7071 -0.7071 0.7071 0.7071 -16.515 31.2515)" class="st2" width="2.4" height="2.4"/>
	
		<rect x="25.6" y="37.1" transform="matrix(0.7071 -0.7071 0.7071 0.7071 -19.1844 30.1457)" class="st2" width="2.4" height="2.4"/>
	<rect x="23" y="39.7" transform="matrix(0.7071 -0.7071 0.7071 0.7071 -21.8486 29.0423)" class="st2" width="2.4" height="2.4"/>
	<rect x="122.5" y="21.9" width="8.4" height="12.8"/>
	<rect x="122.5" y="21.9" width="8.4" height="12.8"/>
	<rect x="122.5" y="21.9" class="st5" width="8.4" height="12.8"/>
	<rect x="122.5" y="21.9" class="st9" width="8.4" height="12.8"/>
	<rect x="129.6" y="31.5" class="st2" width="6.1" height="2.2"/>
	<rect x="129.6" y="23" class="st2" width="6.1" height="2.2"/>
	<rect x="129.6" y="27.3" class="st2" width="6.1" height="2.2"/>
	<rect x="118.6" y="31.5" class="st2" width="6.1" height="2.2"/>
	<rect x="118.6" y="23" class="st2" width="6.1" height="2.2"/>
	<rect x="189.8" y="47" width="12.8" height="8.4"/>
	<rect x="189.8" y="47" width="12.8" height="8.4"/>
	<rect x="189.8" y="47" class="st5" width="12.8" height="8.4"/>
	<rect x="189.8" y="47" class="st9" width="12.8" height="8.4"/>
	<rect x="199.3" y="42.2" class="st2" width="2.2" height="6.1"/>
	<rect x="190.9" y="42.2" class="st2" width="2.2" height="6.1"/>
	<rect x="199.3" y="53.1" class="st2" width="2.2" height="6.1"/>
	<rect x="190.9" y="53.1" class="st2" width="2.2" height="6.1"/>
	<path class="st2" d="M152.2,57.3L152.2,57.3l-1.9,0h-0.2h-1.9v0c-1,0-1.9,0.9-1.9,1.9s0.8,1.9,1.9,1.9v0h1.9h0.2h1.9
		c1.1,0,2-0.9,2-2C154.1,58.2,153.2,57.3,152.2,57.3"/>
	<rect x="148.7" y="57.3" class="st9" width="2.9" height="3.9"/>
	<rect x="148.7" y="57.3" class="st9" width="2.9" height="3.9"/>
	<rect x="148.7" y="57.3" class="st9" width="2.9" height="3.9"/>
	<rect x="148.7" y="57.3" width="2.9" height="3.9"/>
	<path class="st2" d="M208.4,79.4L208.4,79.4l-1.9,0h-0.2h-1.9v0c-1,0-1.9,0.9-1.9,1.9s0.8,1.9,1.9,1.9v0h1.9h0.2h1.9
		c1.1,0,2-0.9,2-2C210.4,80.3,209.5,79.4,208.4,79.4"/>
	<rect x="205" y="79.4" class="st9" width="2.9" height="3.9"/>
	<rect x="205" y="79.4" class="st9" width="2.9" height="3.9"/>
	<rect x="205" y="79.4" class="st9" width="2.9" height="3.9"/>
	<rect x="205" y="79.4" width="2.9" height="3.9"/>
	<path class="st2" d="M200.1,26.5L200.1,26.5l-1.9,0H198h-1.9v0c-1,0-1.9,0.9-1.9,1.9s0.8,1.9,1.9,1.9v0h1.9h0.2h1.9
		c1.1,0,2-0.9,2-2C202,27.3,201.1,26.5,200.1,26.5"/>
	<rect x="196.6" y="26.5" class="st9" width="2.9" height="3.9"/>
	<rect x="196.6" y="26.5" class="st9" width="2.9" height="3.9"/>
	<rect x="196.6" y="26.5" class="st9" width="2.9" height="3.9"/>
	<rect x="196.6" y="26.5" width="2.9" height="3.9"/>
	<path class="st2" d="M211.6,15.5L211.6,15.5l-1.9,0h-0.2h-1.9v0c-1,0-1.9,0.9-1.9,1.9s0.8,1.9,1.9,1.9v0h1.9h0.2h1.9
		c1.1,0,2-0.9,2-2C213.5,16.4,212.7,15.5,211.6,15.5"/>
	<rect x="208.2" y="15.5" class="st9" width="2.9" height="3.9"/>
	<rect x="208.2" y="15.5" class="st9" width="2.9" height="3.9"/>
	<rect x="208.2" y="15.5" class="st9" width="2.9" height="3.9"/>
	<rect x="208.2" y="15.5" width="2.9" height="3.9"/>
	<path class="st2" d="M147.7,79.4L147.7,79.4l-1.9,0h-0.2h-1.9v0c-1,0-1.9,0.9-1.9,1.9s0.8,1.9,1.9,1.9v0h1.9h0.2h1.9
		c1.1,0,2-0.9,2-2C149.7,80.3,148.8,79.4,147.7,79.4"/>
	<rect x="144.3" y="79.4" class="st9" width="2.9" height="3.9"/>
	<rect x="144.3" y="79.4" class="st9" width="2.9" height="3.9"/>
	<rect x="144.3" y="79.4" class="st9" width="2.9" height="3.9"/>
	<rect x="144.3" y="79.4" width="2.9" height="3.9"/>
	<path class="st2" d="M176,67.7L176,67.7l-1.9,0h-0.2H172v0c-1,0-1.9,0.9-1.9,1.9s0.8,1.9,1.9,1.9v0h1.9h0.2h1.9c1.1,0,2-0.9,2-2
		C177.9,68.6,177.1,67.7,176,67.7"/>
	<rect x="172.6" y="67.7" class="st9" width="2.9" height="3.9"/>
	<rect x="172.6" y="67.7" class="st9" width="2.9" height="3.9"/>
	<rect x="172.6" y="67.7" class="st9" width="2.9" height="3.9"/>
	<rect x="172.6" y="67.7" width="2.9" height="3.9"/>
	<path class="st2" d="M132.8,70.8L132.8,70.8l0,1.9v0.2v1.9h0c0,1,0.9,1.9,1.9,1.9s1.9-0.8,1.9-1.9h0v-1.9v-0.2v-1.9
		c0-1.1-0.9-2-2-2S132.8,69.7,132.8,70.8"/>
	<rect x="132.8" y="71.3" class="st9" width="3.9" height="2.9"/>
	<rect x="132.8" y="71.3" class="st9" width="3.9" height="2.9"/>
	<rect x="132.8" y="71.3" class="st9" width="3.9" height="2.9"/>
	<rect x="132.8" y="71.3" width="3.9" height="2.9"/>
	<path class="st2" d="M126.7,70.8L126.7,70.8l0,1.9v0.2v1.9h0c0,1,0.9,1.9,1.9,1.9s1.9-0.8,1.9-1.9h0v-1.9v-0.2v-1.9
		c0-1.1-0.9-2-2-2S126.7,69.7,126.7,70.8"/>
	<rect x="126.7" y="71.3" class="st9" width="3.9" height="2.9"/>
	<rect x="126.7" y="71.3" class="st9" width="3.9" height="2.9"/>
	<rect x="126.7" y="71.3" class="st9" width="3.9" height="2.9"/>
	<rect x="126.7" y="71.3" width="3.9" height="2.9"/>
	<path class="st2" d="M34.2,31.2L34.2,31.2l1.3,1.3l0.1,0.1L37,34l0,0c0.8,0.7,2,0.7,2.7,0c0.7-0.7,0.8-1.9,0-2.7l0,0l-1.3-1.3
		l-0.1-0.1l-1.3-1.3c-0.8-0.8-2-0.8-2.8,0C33.4,29.2,33.4,30.5,34.2,31.2"/>
	<rect x="35" y="29.8" transform="matrix(0.7071 -0.7071 0.7071 0.7071 -11.276 35.2753)" class="st9" width="3.9" height="2.9"/>
	<rect x="35" y="29.8" transform="matrix(0.7071 -0.7071 0.7071 0.7071 -11.276 35.2753)" class="st9" width="3.9" height="2.9"/>
	<rect x="35" y="29.8" transform="matrix(0.7071 -0.7071 0.7071 0.7071 -11.276 35.2753)" class="st9" width="3.9" height="2.9"/>
	<rect x="35" y="29.8" transform="matrix(0.7071 -0.7071 0.7071 0.7071 -11.276 35.2753)" width="3.9" height="2.9"/>
	<path class="st2" d="M25.9,23L25.9,23l1.3,1.3l0.1,0.1l1.3,1.3l0,0c0.8,0.7,2,0.7,2.7,0c0.7-0.7,0.8-1.9,0-2.7l0,0l-1.3-1.3
		l-0.1-0.1l-1.3-1.3c-0.8-0.8-2-0.8-2.8,0C25.2,21,25.2,22.2,25.9,23"/>
	<rect x="26.8" y="21.6" transform="matrix(0.7071 -0.7071 0.7071 0.7071 -7.8694 27.0507)" class="st9" width="3.9" height="2.9"/>
	<rect x="26.8" y="21.6" transform="matrix(0.7071 -0.7071 0.7071 0.7071 -7.8694 27.0507)" class="st9" width="3.9" height="2.9"/>
	<rect x="26.8" y="21.6" transform="matrix(0.7071 -0.7071 0.7071 0.7071 -7.8694 27.0507)" class="st9" width="3.9" height="2.9"/>
	<rect x="26.8" y="21.6" transform="matrix(0.7071 -0.7071 0.7071 0.7071 -7.8694 27.0507)" width="3.9" height="2.9"/>
	<path class="st2" d="M28,78.1L28,78.1l-1.3,1.3l-0.1,0.1l-1.3,1.3l0,0c-0.7,0.8-0.7,2,0,2.7c0.7,0.7,1.9,0.8,2.7,0l0,0l1.3-1.3
		l0.1-0.1l1.3-1.3c0.8-0.8,0.8-2,0-2.8C30,77.3,28.8,77.3,28,78.1"/>
	
		<rect x="26.6" y="78.9" transform="matrix(0.7071 -0.7071 0.7071 0.7071 -48.9803 43.5036)" class="st9" width="2.9" height="3.9"/>
	
		<rect x="26.6" y="78.9" transform="matrix(0.7071 -0.7071 0.7071 0.7071 -48.9803 43.5036)" class="st9" width="2.9" height="3.9"/>
	
		<rect x="26.6" y="78.9" transform="matrix(0.7071 -0.7071 0.7071 0.7071 -48.9803 43.5036)" class="st9" width="2.9" height="3.9"/>
	<rect x="26.6" y="78.9" transform="matrix(0.7071 -0.7071 0.7071 0.7071 -48.9803 43.5036)" width="2.9" height="3.9"/>
	<path class="st2" d="M36.3,69.9L36.3,69.9l-1.3,1.3l-0.1,0.1l-1.3,1.3l0,0c-0.7,0.8-0.7,2,0,2.7c0.7,0.7,1.9,0.8,2.7,0l0,0l1.3-1.3
		l0.1-0.1l1.3-1.3c0.8-0.8,0.8-2,0-2.8C38.3,69.1,37,69.1,36.3,69.9"/>
	
		<rect x="34.8" y="70.7" transform="matrix(0.7071 -0.7071 0.7071 0.7071 -40.7559 46.9102)" class="st9" width="2.9" height="3.9"/>
	
		<rect x="34.8" y="70.7" transform="matrix(0.7071 -0.7071 0.7071 0.7071 -40.7559 46.9102)" class="st9" width="2.9" height="3.9"/>
	
		<rect x="34.8" y="70.7" transform="matrix(0.7071 -0.7071 0.7071 0.7071 -40.7559 46.9102)" class="st9" width="2.9" height="3.9"/>
	<rect x="34.8" y="70.7" transform="matrix(0.7071 -0.7071 0.7071 0.7071 -40.7559 46.9102)" width="2.9" height="3.9"/>
	<path class="st2" d="M20.6,54.2L20.6,54.2l-1.3,1.3l-0.1,0.1L17.8,57l0,0c-0.7,0.8-0.7,2,0,2.7c0.7,0.7,1.9,0.8,2.7,0l0,0l1.3-1.3
		l0.1-0.1l1.3-1.3c0.8-0.8,0.8-2,0-2.8C22.6,53.5,21.4,53.5,20.6,54.2"/>
	<rect x="19.1" y="55" transform="matrix(0.7071 -0.7071 0.7071 0.7071 -34.2694 31.2509)" class="st9" width="2.9" height="3.9"/>
	<rect x="19.1" y="55" transform="matrix(0.7071 -0.7071 0.7071 0.7071 -34.2694 31.2509)" class="st9" width="2.9" height="3.9"/>
	<rect x="19.1" y="55" transform="matrix(0.7071 -0.7071 0.7071 0.7071 -34.2694 31.2509)" class="st9" width="2.9" height="3.9"/>
	<rect x="19.1" y="55" transform="matrix(0.7071 -0.7071 0.7071 0.7071 -34.2694 31.2509)" width="2.9" height="3.9"/>
	<path class="st2" d="M19.6,45.8L19.6,45.8l1.3,1.3l0.1,0.1l1.3,1.3l0,0c0.8,0.7,2,0.7,2.7,0c0.7-0.7,0.8-1.9,0-2.7l0,0l-1.3-1.3
		l-0.1-0.1L22.4,43c-0.8-0.8-2-0.8-2.8,0C18.8,43.8,18.8,45,19.6,45.8"/>
	<rect x="20.4" y="44.4" transform="matrix(0.7071 -0.7071 0.7071 0.7071 -25.839 29.243)" class="st9" width="3.9" height="2.9"/>
	<rect x="20.4" y="44.4" transform="matrix(0.7071 -0.7071 0.7071 0.7071 -25.839 29.243)" class="st9" width="3.9" height="2.9"/>
	<rect x="20.4" y="44.4" transform="matrix(0.7071 -0.7071 0.7071 0.7071 -25.839 29.243)" class="st9" width="3.9" height="2.9"/>
	<rect x="20.4" y="44.4" transform="matrix(0.7071 -0.7071 0.7071 0.7071 -25.839 29.243)" width="3.9" height="2.9"/>
	<path class="st2" d="M11.4,37.6L11.4,37.6l1.3,1.3l0.1,0.1l1.3,1.3l0,0c0.8,0.7,2,0.7,2.7,0c0.7-0.7,0.8-1.9,0-2.7l0,0l-1.3-1.3
		l-0.1-0.1l-1.3-1.3c-0.8-0.8-2-0.8-2.8,0C10.6,35.6,10.6,36.8,11.4,37.6"/>
	
		<rect x="12.2" y="36.1" transform="matrix(0.7071 -0.7071 0.7071 0.7071 -22.4323 21.0185)" class="st9" width="3.9" height="2.9"/>
	
		<rect x="12.2" y="36.1" transform="matrix(0.7071 -0.7071 0.7071 0.7071 -22.4323 21.0185)" class="st9" width="3.9" height="2.9"/>
	
		<rect x="12.2" y="36.1" transform="matrix(0.7071 -0.7071 0.7071 0.7071 -22.4323 21.0185)" class="st9" width="3.9" height="2.9"/>
	<rect x="12.2" y="36.1" transform="matrix(0.7071 -0.7071 0.7071 0.7071 -22.4323 21.0185)" width="3.9" height="2.9"/>
	<path class="st2" d="M172.4,22.2L172.4,22.2l0,1.9v0.2v1.9h0c0,1,0.9,1.9,1.9,1.9s1.9-0.8,1.9-1.9h0v-1.9v-0.2v-1.9
		c0-1.1-0.9-2-2-2C173.3,20.3,172.4,21.1,172.4,22.2"/>
	<rect x="172.4" y="22.7" class="st9" width="3.9" height="2.9"/>
	<rect x="172.4" y="22.7" class="st9" width="3.9" height="2.9"/>
	<rect x="172.4" y="22.7" class="st9" width="3.9" height="2.9"/>
	<rect x="172.4" y="22.7" width="3.9" height="2.9"/>
	<path class="st2" d="M166.2,22.2L166.2,22.2l0,1.9v0.2v1.9h0c0,1,0.9,1.9,1.9,1.9s1.9-0.8,1.9-1.9h0v-1.9v-0.2v-1.9
		c0-1.1-0.9-2-2-2S166.2,21.1,166.2,22.2"/>
	<rect x="166.2" y="22.7" class="st9" width="3.9" height="2.9"/>
	<rect x="166.2" y="22.7" class="st9" width="3.9" height="2.9"/>
	<rect x="166.2" y="22.7" class="st9" width="3.9" height="2.9"/>
	<rect x="166.2" y="22.7" width="3.9" height="2.9"/>
	<rect x="157.9" y="56.9" width="4" height="8"/>
	<rect x="157.9" y="64.5" class="st4" width="4" height="0.4"/>
	<rect x="157.9" y="56.9" class="st4" width="4" height="0.4"/>
	<rect x="185.4" y="68.7" width="14.4" height="6.7"/>
	<rect x="185.4" y="68.7" width="14.4" height="6.7"/>
	<rect x="185.4" y="68.7" class="st5" width="14.4" height="6.7"/>
	<rect x="185.4" y="68.7" class="st9" width="14.4" height="6.7"/>
	<rect x="198.7" y="71.1" class="st2" width="5.4" height="2"/>
	<rect x="182.1" y="71.1" class="st2" width="5.4" height="2"/>
	<path class="st12" d="M209.9,97.3v-7.1c0-2.4,1.9-4.3,4.4-4.3c2.4,0,4.3,2,4.3,4.3v7.1H209.9z"/>
	<path class="st9" d="M211.4,90.1c0-1.6,1.3-2.8,2.8-2.8c1.6,0,2.8,1.3,2.8,2.8c0,1.6-1.3,2.8-2.8,2.8
		C212.7,92.9,211.4,91.7,211.4,90.1"/>
	<path class="st13" d="M211.4,97.3c0-1.6,1.3-2.8,2.8-2.8c1.6,0,2.8,1.3,2.8,2.8H211.4z"/>
	<path class="st12" d="M196.1,97.3v-7.1c0-2.4,1.9-4.3,4.4-4.3c2.4,0,4.3,2,4.3,4.3v7.1H196.1z"/>
	<path class="st9" d="M197.7,90.1c0-1.6,1.3-2.8,2.8-2.8c1.6,0,2.8,1.3,2.8,2.8c0,1.6-1.3,2.8-2.8,2.8
		C198.9,92.9,197.7,91.7,197.7,90.1"/>
	<path class="st13" d="M197.7,97.3c0-1.6,1.3-2.8,2.8-2.8c1.6,0,2.8,1.3,2.8,2.8H197.7z"/>
	<path class="st12" d="M182.4,97.3v-7.1c0-2.4,1.9-4.3,4.4-4.3c2.4,0,4.3,2,4.3,4.3v7.1H182.4z"/>
	<path class="st9" d="M183.9,90.1c0-1.6,1.3-2.8,2.8-2.8c1.6,0,2.8,1.3,2.8,2.8c0,1.6-1.3,2.8-2.8,2.8
		C185.2,92.9,183.9,91.7,183.9,90.1"/>
	<path class="st13" d="M183.9,97.3c0-1.6,1.3-2.8,2.8-2.8c1.6,0,2.8,1.3,2.8,2.8H183.9z"/>
	<path class="st12" d="M168.7,97.3v-7.1c0-2.4,1.9-4.3,4.4-4.3c2.4,0,4.3,2,4.3,4.3v7.1H168.7z"/>
	<path class="st9" d="M170.2,90.1c0-1.6,1.3-2.8,2.8-2.8c1.6,0,2.8,1.3,2.8,2.8c0,1.6-1.3,2.8-2.8,2.8
		C171.5,92.9,170.2,91.7,170.2,90.1"/>
	<path class="st13" d="M170.2,97.3c0-1.6,1.3-2.8,2.8-2.8c1.6,0,2.8,1.3,2.8,2.8H170.2z"/>
	<path class="st12" d="M154.9,97.3v-7.1c0-2.4,1.9-4.3,4.4-4.3c2.4,0,4.3,2,4.3,4.3v7.1H154.9z"/>
	<path class="st9" d="M156.5,90.1c0-1.6,1.3-2.8,2.8-2.8c1.6,0,2.8,1.3,2.8,2.8c0,1.6-1.3,2.8-2.8,2.8
		C157.7,92.9,156.5,91.7,156.5,90.1"/>
	<path class="st13" d="M156.5,97.3c0-1.6,1.3-2.8,2.8-2.8c1.6,0,2.8,1.3,2.8,2.8H156.5z"/>
	<path class="st12" d="M141.2,97.3v-7.1c0-2.4,1.9-4.3,4.4-4.3c2.4,0,4.3,2,4.3,4.3v7.1H141.2z"/>
	<path class="st9" d="M142.7,90.1c0-1.6,1.3-2.8,2.8-2.8c1.6,0,2.8,1.3,2.8,2.8c0,1.6-1.3,2.8-2.8,2.8
		C144,92.9,142.7,91.7,142.7,90.1"/>
	<path class="st13" d="M142.7,97.3c0-1.6,1.3-2.8,2.8-2.8c1.6,0,2.8,1.3,2.8,2.8H142.7z"/>
	<path class="st12" d="M127.5,97.3v-7.1c0-2.4,1.9-4.3,4.4-4.3c2.4,0,4.3,2,4.3,4.3v7.1H127.5z"/>
	<path class="st9" d="M129,90.1c0-1.6,1.3-2.8,2.8-2.8c1.6,0,2.8,1.3,2.8,2.8c0,1.6-1.3,2.8-2.8,2.8C130.3,92.9,129,91.7,129,90.1"
		/>
	<path class="st13" d="M129,97.3c0-1.6,1.3-2.8,2.8-2.8c1.6,0,2.8,1.3,2.8,2.8H129z"/>
	<path class="st12" d="M113.7,97.3v-7.1c0-2.4,1.9-4.3,4.4-4.3c2.4,0,4.3,2,4.3,4.3v7.1H113.7z"/>
	<path class="st9" d="M115.2,90.1c0-1.6,1.3-2.8,2.8-2.8c1.6,0,2.8,1.3,2.8,2.8c0,1.6-1.3,2.8-2.8,2.8
		C116.5,92.9,115.2,91.7,115.2,90.1"/>
	<path class="st13" d="M115.3,97.3c0-1.6,1.3-2.8,2.8-2.8c1.6,0,2.8,1.3,2.8,2.8H115.3z"/>
	<path class="st12" d="M100,97.3v-7.1c0-2.4,1.9-4.3,4.4-4.3c2.4,0,4.3,2,4.3,4.3v7.1H100z"/>
	<path class="st9" d="M101.5,90.1c0-1.6,1.3-2.8,2.8-2.8c1.6,0,2.8,1.3,2.8,2.8c0,1.6-1.3,2.8-2.8,2.8
		C102.8,92.9,101.5,91.7,101.5,90.1"/>
	<path class="st13" d="M101.5,97.3c0-1.6,1.3-2.8,2.8-2.8c1.6,0,2.8,1.3,2.8,2.8H101.5z"/>
	<path class="st12" d="M86.3,97.3v-7.1c0-2.4,1.9-4.3,4.4-4.3c2.4,0,4.3,2,4.3,4.3v7.1H86.3z"/>
	<path class="st9" d="M87.8,90.1c0-1.6,1.3-2.8,2.8-2.8c1.6,0,2.8,1.3,2.8,2.8c0,1.6-1.3,2.8-2.8,2.8C89,92.9,87.8,91.7,87.8,90.1"
		/>
	<path class="st13" d="M87.8,97.3c0-1.6,1.3-2.8,2.8-2.8c1.6,0,2.8,1.3,2.8,2.8H87.8z"/>
	<path class="st12" d="M72.5,97.3v-7.1c0-2.4,1.9-4.3,4.4-4.3c2.4,0,4.3,2,4.3,4.3v7.1H72.5z"/>
	<path class="st9" d="M74,90.1c0-1.6,1.3-2.8,2.8-2.8c1.6,0,2.8,1.3,2.8,2.8c0,1.6-1.3,2.8-2.8,2.8C75.3,92.9,74,91.7,74,90.1"/>
	<path class="st13" d="M74,97.3c0-1.6,1.3-2.8,2.8-2.8c1.6,0,2.8,1.3,2.8,2.8H74z"/>
	<path class="st12" d="M58.8,97.3v-7.1c0-2.4,1.9-4.3,4.4-4.3c2.4,0,4.3,2,4.3,4.3v7.1H58.8z"/>
	<path class="st9" d="M60.3,90.1c0-1.6,1.3-2.8,2.8-2.8c1.6,0,2.8,1.3,2.8,2.8c0,1.6-1.3,2.8-2.8,2.8C61.6,92.9,60.3,91.7,60.3,90.1
		"/>
	<path class="st13" d="M60.3,97.3c0-1.6,1.3-2.8,2.8-2.8c1.6,0,2.8,1.3,2.8,2.8H60.3z"/>
	<path class="st12" d="M45,97.3v-7.1c0-2.4,1.9-4.3,4.4-4.3c2.4,0,4.3,2,4.3,4.3v7.1H45z"/>
	<path class="st9" d="M46.6,90.1c0-1.6,1.3-2.8,2.8-2.8c1.6,0,2.8,1.3,2.8,2.8c0,1.6-1.3,2.8-2.8,2.8C47.8,92.9,46.6,91.7,46.6,90.1
		"/>
	<path class="st13" d="M46.6,97.3c0-1.6,1.3-2.8,2.8-2.8c1.6,0,2.8,1.3,2.8,2.8H46.6z"/>
	<path class="st12" d="M31.3,97.3v-7.1c0-2.4,1.9-4.3,4.4-4.3c2.4,0,4.3,2,4.3,4.3v7.1H31.3z"/>
	<path class="st9" d="M32.8,90.1c0-1.6,1.3-2.8,2.8-2.8c1.6,0,2.8,1.3,2.8,2.8c0,1.6-1.3,2.8-2.8,2.8C34.1,92.9,32.8,91.7,32.8,90.1
		"/>
	<path class="st13" d="M32.8,97.3c0-1.6,1.3-2.8,2.8-2.8c1.6,0,2.8,1.3,2.8,2.8H32.8z"/>
	<path class="st12" d="M17.6,97.3v-7.1c0-2.4,1.9-4.3,4.4-4.3c2.4,0,4.3,2,4.3,4.3v7.1H17.6z"/>
	<path class="st9" d="M19.1,90.1c0-1.6,1.3-2.8,2.8-2.8c1.6,0,2.8,1.3,2.8,2.8c0,1.6-1.3,2.8-2.8,2.8C20.4,92.9,19.1,91.7,19.1,90.1
		"/>
	<path class="st13" d="M19.1,97.3c0-1.6,1.3-2.8,2.8-2.8c1.6,0,2.8,1.3,2.8,2.8H19.1z"/>
	<path class="st12" d="M26.3,0v7.1c0,2.4-2,4.3-4.4,4.3c-2.4,0-4.3-2-4.3-4.3V0H26.3z"/>
	<path class="st9" d="M24.8,7.2c0,1.6-1.3,2.8-2.8,2.8c-1.6,0-2.8-1.3-2.8-2.8c0-1.6,1.3-2.8,2.8-2.8C23.5,4.3,24.8,5.6,24.8,7.2"/>
	<path class="st13" d="M24.8,0c0,1.6-1.3,2.8-2.8,2.8c-1.6,0-2.8-1.3-2.8-2.8H24.8z"/>
	<path class="st12" d="M40,0v7.1c0,2.4-2,4.3-4.4,4.3c-2.4,0-4.3-2-4.3-4.3V0H40z"/>
	<path class="st9" d="M38.5,7.2c0,1.6-1.3,2.8-2.8,2.8c-1.6,0-2.8-1.3-2.8-2.8c0-1.6,1.3-2.8,2.8-2.8C37.2,4.3,38.5,5.6,38.5,7.2"/>
	<path class="st13" d="M38.5,0c0,1.6-1.3,2.8-2.8,2.8c-1.6,0-2.8-1.3-2.8-2.8H38.5z"/>
	<path class="st12" d="M53.8,0v7.1c0,2.4-2,4.3-4.4,4.3c-2.4,0-4.3-2-4.3-4.3V0H53.8z"/>
	<path class="st9" d="M52.2,7.2c0,1.6-1.3,2.8-2.8,2.8c-1.6,0-2.8-1.3-2.8-2.8c0-1.6,1.3-2.8,2.8-2.8C51,4.3,52.2,5.6,52.2,7.2"/>
	<path class="st13" d="M52.2,0c0,1.6-1.3,2.8-2.8,2.8c-1.6,0-2.8-1.3-2.8-2.8H52.2z"/>
	<path class="st12" d="M67.5,0v7.1c0,2.4-2,4.3-4.4,4.3c-2.4,0-4.3-2-4.3-4.3V0H67.5z"/>
	<path class="st9" d="M66,7.2c0,1.6-1.3,2.8-2.8,2.8c-1.6,0-2.8-1.3-2.8-2.8c0-1.6,1.3-2.8,2.8-2.8C64.7,4.3,66,5.6,66,7.2"/>
	<path class="st13" d="M66,0c0,1.6-1.3,2.8-2.8,2.8c-1.6,0-2.8-1.3-2.8-2.8H66z"/>
	<path class="st12" d="M81.2,0v7.1c0,2.4-2,4.3-4.4,4.3c-2.4,0-4.3-2-4.3-4.3V0H81.2z"/>
	<path class="st9" d="M79.7,7.2c0,1.6-1.3,2.8-2.8,2.8C75.3,10,74,8.7,74,7.2c0-1.6,1.3-2.8,2.8-2.8C78.4,4.3,79.7,5.6,79.7,7.2"/>
	<path class="st13" d="M79.7,0c0,1.6-1.3,2.8-2.8,2.8C75.3,2.8,74,1.6,74,0H79.7z"/>
	<path class="st12" d="M95,0v7.1c0,2.4-2,4.3-4.4,4.3c-2.4,0-4.3-2-4.3-4.3V0H95z"/>
	<path class="st9" d="M93.4,7.2c0,1.6-1.3,2.8-2.8,2.8c-1.6,0-2.8-1.3-2.8-2.8c0-1.6,1.3-2.8,2.8-2.8C92.2,4.3,93.4,5.6,93.4,7.2"/>
	<path class="st13" d="M93.4,0c0,1.6-1.3,2.8-2.8,2.8c-1.6,0-2.8-1.3-2.8-2.8H93.4z"/>
	<path class="st12" d="M108.7,0v7.1c0,2.4-2,4.3-4.4,4.3c-2.4,0-4.3-2-4.3-4.3V0H108.7z"/>
	<path class="st9" d="M107.2,7.2c0,1.6-1.3,2.8-2.8,2.8c-1.6,0-2.8-1.3-2.8-2.8c0-1.6,1.3-2.8,2.8-2.8
		C105.9,4.3,107.2,5.6,107.2,7.2"/>
	<path class="st13" d="M107.2,0c0,1.6-1.3,2.8-2.8,2.8c-1.6,0-2.8-1.3-2.8-2.8H107.2z"/>
	<path class="st12" d="M122.4,0v7.1c0,2.4-2,4.3-4.4,4.3c-2.4,0-4.3-2-4.3-4.3V0H122.4z"/>
	<path class="st9" d="M120.9,7.2c0,1.6-1.3,2.8-2.8,2.8c-1.6,0-2.8-1.3-2.8-2.8c0-1.6,1.3-2.8,2.8-2.8
		C119.6,4.3,120.9,5.6,120.9,7.2"/>
	<path class="st13" d="M120.9,0c0,1.6-1.3,2.8-2.8,2.8c-1.6,0-2.8-1.3-2.8-2.8H120.9z"/>
	<path class="st12" d="M136.2,0v7.1c0,2.4-2,4.3-4.4,4.3c-2.4,0-4.3-2-4.3-4.3V0H136.2z"/>
	<path class="st9" d="M134.7,7.2c0,1.6-1.3,2.8-2.8,2.8c-1.6,0-2.8-1.3-2.8-2.8c0-1.6,1.3-2.8,2.8-2.8
		C133.4,4.3,134.7,5.6,134.7,7.2"/>
	<path class="st13" d="M134.6,0c0,1.6-1.3,2.8-2.8,2.8c-1.6,0-2.8-1.3-2.8-2.8H134.6z"/>
	<path class="st12" d="M149.9,0v7.1c0,2.4-2,4.3-4.4,4.3c-2.4,0-4.3-2-4.3-4.3V0H149.9z"/>
	<path class="st9" d="M148.4,7.2c0,1.6-1.3,2.8-2.8,2.8c-1.6,0-2.8-1.3-2.8-2.8c0-1.6,1.3-2.8,2.8-2.8
		C147.1,4.3,148.4,5.6,148.4,7.2"/>
	<path class="st13" d="M148.4,0c0,1.6-1.3,2.8-2.8,2.8c-1.6,0-2.8-1.3-2.8-2.8H148.4z"/>
	<path class="st12" d="M163.6,0v7.1c0,2.4-2,4.3-4.4,4.3c-2.4,0-4.3-2-4.3-4.3V0H163.6z"/>
	<path class="st9" d="M162.1,7.2c0,1.6-1.3,2.8-2.8,2.8c-1.6,0-2.8-1.3-2.8-2.8c0-1.6,1.3-2.8,2.8-2.8
		C160.9,4.3,162.1,5.6,162.1,7.2"/>
	<path class="st13" d="M162.1,0c0,1.6-1.3,2.8-2.8,2.8c-1.6,0-2.8-1.3-2.8-2.8H162.1z"/>
	<path class="st12" d="M177.4,0v7.1c0,2.4-2,4.3-4.4,4.3c-2.4,0-4.3-2-4.3-4.3V0H177.4z"/>
	<path class="st9" d="M175.9,7.2c0,1.6-1.3,2.8-2.8,2.8c-1.6,0-2.8-1.3-2.8-2.8c0-1.6,1.3-2.8,2.8-2.8
		C174.6,4.3,175.9,5.6,175.9,7.2"/>
	<path class="st13" d="M175.9,0c0,1.6-1.3,2.8-2.8,2.8c-1.6,0-2.8-1.3-2.8-2.8H175.9z"/>
	<path class="st12" d="M191.1,0v7.1c0,2.4-2,4.3-4.4,4.3c-2.4,0-4.3-2-4.3-4.3V0H191.1z"/>
	<path class="st9" d="M189.6,7.2c0,1.6-1.3,2.8-2.8,2.8c-1.6,0-2.8-1.3-2.8-2.8c0-1.6,1.3-2.8,2.8-2.8
		C188.3,4.3,189.6,5.6,189.6,7.2"/>
	<path class="st13" d="M189.6,0c0,1.6-1.3,2.8-2.8,2.8c-1.6,0-2.8-1.3-2.8-2.8H189.6z"/>
	<path class="st12" d="M204.9,0v7.1c0,2.4-2,4.3-4.4,4.3c-2.4,0-4.3-2-4.3-4.3V0H204.9z"/>
	<path class="st9" d="M203.3,7.2c0,1.6-1.3,2.8-2.8,2.8c-1.6,0-2.8-1.3-2.8-2.8c0-1.6,1.3-2.8,2.8-2.8
		C202.1,4.3,203.3,5.6,203.3,7.2"/>
	<path class="st13" d="M203.3,0c0,1.6-1.3,2.8-2.8,2.8c-1.6,0-2.8-1.3-2.8-2.8H203.3z"/>
	<path class="st12" d="M218.6,0v7.1c0,2.4-2,4.3-4.4,4.3c-2.4,0-4.3-2-4.3-4.3V0H218.6z"/>
	<path class="st9" d="M217.1,7.2c0,1.6-1.3,2.8-2.8,2.8c-1.6,0-2.8-1.3-2.8-2.8c0-1.6,1.3-2.8,2.8-2.8
		C215.8,4.3,217.1,5.6,217.1,7.2"/>
	<path class="st13" d="M217.1,0c0,1.6-1.3,2.8-2.8,2.8c-1.6,0-2.8-1.3-2.8-2.8H217.1z"/>
</g>
</svg>
